#N canvas -8 -8 1366 695 12;
#X obj 470 217 +~ 1;
#X obj 470 244 *~ 0.5;
#X obj 468 120 delwrite~ \$0-delay1 5000;
#X obj 470 540 vd~ \$0-delay1, f 16;
#N canvas 0 22 450 300 rep 0;
#X obj 119 16 inlet~;
#X obj 164 96 tgl 15 0 empty empty empty 17 7 0 10 -262144 -1 -1 1
1;
#X obj 164 45 loadbang;
#X obj 164 70 f 1;
#X obj 119 149 tabwrite~ \$0-LFO1;
#X obj 164 119 metro 100;
#X obj 236 15 block~ 4096 1 0.125;
#X connect 0 0 4 0;
#X connect 1 0 5 0;
#X connect 2 0 3 0;
#X connect 3 0 1 0;
#X connect 5 0 4 0;
#X restore 470 274 pd rep;
#N canvas 0 22 450 300 (subpatch) 0;
#X array \$0-LFO1 4096 float 0;
#X coords 0 1 4095 0 150 98 2 0 0;
#X restore 484 403 graph;
#X text 466 144 Low Frequency Oscillator;
#X text 606 540 x[n-t];
#X text 544 378 t (ms);
#X text 598 272 Depth (ms);
#X text 405 580 x[n];
#X text 483 638 y[n] = x[n] + ax[n-t];
#X text 559 579 Feedback (0-1);
#X text 513 605 ax[n-t];
#X text 526 165 Rate (Hz);
#X text 615 312 Shift (ms);
#X obj 441 637 +~, f 4;
#X text 12 13 The flanger est un traitement audio où le signal original
est mixé avec une version retardé de lui même et dont le temps de
retard est contrôlé par un LFO (low frequency oscillator) \; donnant
l’effet de flanging.;
#X obj 128 443 loadbang;
#X obj 470 168 nbx 5 14 -1e+037 1e+037 0 0 empty \$0-rate empty 0 -8
0 10 -262144 -1 -1 0 256;
#X msg 127 496 1;
#X obj 126 521 s \$0-rate;
#X obj 539 276 nbx 5 14 0 1e+037 0 0 empty \$0-depth empty 0 -8 0 10
-262144 -1 -1 0 256;
#X obj 87 546 s \$0-depth;
#X text 12 113 Cela produit un filtre en peigne (y[n] = x[n] + ax[n-t])
qui balaye les fréquences selon la fréquence (rate Hz) \, la profondeur
(depth ms) et un offset (shift ms) du LFO et un coefficient a (feedback
0-1) de réinjection., f 50;
#X obj 555 316 nbx 5 14 0 1e+037 0 0 empty \$0-shift empty 0 -8 0 10
-262144 -1 -1 0 256;
#X obj 49 573 s \$0-shift;
#X msg 8 569 1;
#X obj 8 599 s \$0-feedback;
#X obj 499 581 nbx 5 14 0 1 0 0 empty \$0-feedback empty 0 -8 0 10
-262144 -1 -1 0 256;
#X text 12 213 Une des premières utilisations de cet effet se trouve
sur le morceau "Tomorrow Never Knows" de l’album « Revolver » des
Beatles \, où le flanging est utilisé pour artificiellement doubler
la voix de John Lennon, f 50;
#X msg 49 543 0.0001;
#X msg 87 521 1;
#X obj 441 91 inlet~;
#X obj 441 754 outlet~;
#X obj 496 755 outlet~;
#X obj 470 303 *~, f 9;
#X obj 470 343 +~, f 11;
#X obj 470 605 *~;
#X msg 512 562 0.7;
#X obj 470 190 osc~;
#X obj 619 161 inlet~;
#X obj 545 227 inlet~;
#X obj 625 344 inlet;
#X connect 0 0 1 0;
#X connect 1 0 4 0;
#X connect 1 0 36 0;
#X connect 3 0 38 0;
#X connect 16 0 34 0;
#X connect 16 0 35 0;
#X connect 20 0 21 0;
#X connect 27 0 28 0;
#X connect 31 0 26 0;
#X connect 32 0 23 0;
#X connect 33 0 16 0;
#X connect 33 0 2 0;
#X connect 36 0 37 0;
#X connect 37 0 3 0;
#X connect 38 0 16 1;
#X connect 39 0 38 1;
#X connect 40 0 0 0;
#X connect 41 0 40 0;
#X connect 42 0 36 1;
#X connect 43 0 37 1;
