#N canvas 7 28 1353 756 12;
#X obj 582 440 +~;
#X obj 677 352 +~;
#X obj 677 421 *~;
#X obj 759 384 *~;
#X obj 582 499 *~ 0.5;
#X obj 582 464 osc~;
#X obj 677 387 phasor~;
#X obj 582 305 inlet~;
#X obj 694 325 inlet~;
#X obj 776 359 inlet~;
#X obj 582 540 outlet~;
#X obj 641 540 outlet~;
#X connect 0 0 5 0;
#X connect 1 0 3 0;
#X connect 1 0 6 0;
#X connect 2 0 0 1;
#X connect 3 0 2 1;
#X connect 4 0 10 0;
#X connect 4 0 11 0;
#X connect 5 0 4 0;
#X connect 6 0 2 0;
#X connect 7 0 0 0;
#X connect 7 0 1 0;
#X connect 8 0 1 1;
#X connect 9 0 3 1;
