#N canvas 1617 72 1126 822 12;
#X obj 560 253 env~ 1024;
#X floatatom 560 277 5 0 0 0 - - -;
#X obj 560 302 moses;
#X floatatom 592 327 5 0 0 0 - - -;
#X obj 591 355 expr (($f1 - $f3) / $f2) - $f1 + $f3;
#X floatatom 715 304 5 0 0 0 - - -;
#X obj 715 251 loadbang;
#X floatatom 840 225 5 0 0 2 reference - -;
#X floatatom 591 381 5 0 0 0 - - -;
#X obj 386 623 *~;
#X obj 591 420 expr 100 + $f1;
#X floatatom 591 444 5 0 0 0 - - -;
#X obj 591 467 dbtorms;
#X floatatom 591 491 10 0 0 0 - - -;
#X obj 560 328 bng 15 250 50 0 empty empty empty 17 7 0 10 -262144
-1 -1;
#X obj 327 254 delwrite~ comp 100;
#X floatatom 290 373 5 0 0 0 - - -;
#X obj 290 430 delread~ comp;
#X obj 404 600 line~;
#X floatatom 654 222 10 0 0 2 threshold - -;
#X text 754 295 compression;
#X text 764 306 factor;
#X text 335 406 forward control;
#X text 406 529 rls;
#X text 463 573 atk;
#X obj 476 196 inlet~;
#X obj 370 711 outlet~;
#X msg 383 548 \$1 20;
#X msg 415 571 \$1 20;
#X obj 380 663 *~;
#X msg 440 644 1;
#X msg 715 280 10;
#X msg 291 399 10;
#X msg 656 241 40;
#X msg 556 483 0.5;
#X msg 846 259 85;
#X connect 0 0 1 0;
#X connect 1 0 2 0;
#X connect 2 0 14 0;
#X connect 2 1 3 0;
#X connect 3 0 4 0;
#X connect 4 0 8 0;
#X connect 5 0 4 1;
#X connect 6 0 31 0;
#X connect 6 0 33 0;
#X connect 6 0 35 0;
#X connect 6 0 30 0;
#X connect 6 0 32 0;
#X connect 8 0 10 0;
#X connect 9 0 29 0;
#X connect 10 0 11 0;
#X connect 11 0 12 0;
#X connect 12 0 13 0;
#X connect 13 0 28 0;
#X connect 14 0 34 0;
#X connect 17 0 9 0;
#X connect 18 0 9 1;
#X connect 25 0 0 0;
#X connect 25 0 15 0;
#X connect 27 0 18 0;
#X connect 28 0 18 0;
#X connect 29 0 26 0;
#X connect 30 0 29 1;
#X connect 31 0 5 0;
#X connect 32 0 17 0;
#X connect 33 0 2 1;
#X connect 34 0 27 0;
#X connect 35 0 4 2;
