#N canvas -8 -8 1366 695 10;
#X obj 336 508 *~ -1;
#X obj 75 486 *~;
#X obj 336 484 *~;
#X obj 90 276 t f f;
#X msg 90 298 127 \$1;
#X obj 90 320 -;
#X obj 90 342 / 127;
#X obj 90 364 pack 0 50;
#X obj 90 386 line~;
#X obj 248 421 / 127;
#X obj 248 443 pack 0 50;
#X obj 248 465 line~;
#X obj 75 516 hip~ 5;
#X obj 337 536 min~ 1;
#X obj 337 558 max~ -1;
#N canvas 0 22 793 555 delay1 0;
#X obj 195 112 inlet~;
#X obj 365 197 sig~;
#X obj 365 461 outlet~;
#X obj 456 311 *~;
#X obj 472 113 inlet;
#X obj 472 208 pack 0 50;
#X obj 472 230 line~;
#X text 454 96 FEEDBACK;
#X text 365 89 DELAY;
#X text 193 90 SIGNAL IN;
#X obj 365 286 vd~ \$0-dly1;
#X obj 472 282 min~ 0.98;
#X obj 365 219 +~;
#X obj 410 158 inlet~;
#X obj 410 180 *~ 499;
#X obj 410 202 +~ 10;
#X text 415 139 CV IN;
#X obj 472 252 +~;
#X obj 546 235 inlet~;
#X obj 197 465 delwrite~ \$0-dly1 500;
#X obj 365 241 lop~ 1;
#X obj 365 109 inlet;
#X obj 365 131 / 127;
#X obj 365 153 * 499;
#X obj 365 175 + 10;
#X obj 472 137 / 127;
#X obj 472 159 * 0.48;
#X obj 472 181 + 0.5;
#X connect 0 0 19 0;
#X connect 1 0 12 0;
#X connect 3 0 19 0;
#X connect 4 0 25 0;
#X connect 5 0 6 0;
#X connect 6 0 17 0;
#X connect 10 0 2 0;
#X connect 10 0 3 0;
#X connect 11 0 3 1;
#X connect 12 0 20 0;
#X connect 13 0 14 0;
#X connect 14 0 15 0;
#X connect 15 0 12 1;
#X connect 17 0 11 0;
#X connect 18 0 17 1;
#X connect 20 0 10 0;
#X connect 21 0 22 0;
#X connect 22 0 23 0;
#X connect 23 0 24 0;
#X connect 24 0 1 0;
#X connect 25 0 26 0;
#X connect 26 0 27 0;
#X connect 27 0 5 0;
#X restore 336 251 pd delay1;
#X obj 622 504 *~ -1;
#X obj 622 482 *~;
#X obj 623 532 min~ 1;
#X obj 623 554 max~ -1;
#X obj 350 117 r \$0-stereo-delay-rate-left-s;
#X obj 374 185 r \$0-stereo-delay-feedback-s;
#X obj 622 430 lop~;
#X obj 622 452 lop~;
#X obj 438 263 / 127;
#X obj 438 312 * 4950;
#X obj 438 334 + 50;
#X obj 438 356 pack 0 50;
#X obj 438 378 line;
#X obj 438 207 r \$0-stereo-delay-lowpass-s;
#X obj 336 419 lop~;
#X obj 336 441 lop~;
#X obj 438 427 t f f f f;
#X obj 660 143 r \$0-stereo-delay-feedback-s;
#X obj 636 75 r \$0-stereo-delay-rate-right-s;
#N canvas 0 22 793 555 delay2 0;
#X obj 195 112 inlet~;
#X obj 365 197 sig~;
#X obj 365 461 outlet~;
#X obj 456 311 *~;
#X obj 472 113 inlet;
#X obj 472 137 / 127;
#X obj 472 208 pack 0 50;
#X obj 472 230 line~;
#X text 454 96 FEEDBACK;
#X text 365 89 DELAY;
#X text 193 90 SIGNAL IN;
#X obj 472 181 + 0.5;
#X obj 472 159 * 0.48;
#X obj 472 282 min~ 0.98;
#X obj 365 219 +~;
#X obj 410 158 inlet~;
#X obj 410 180 *~ 499;
#X obj 410 202 +~ 10;
#X text 415 139 CV IN;
#X obj 472 252 +~;
#X obj 546 235 inlet~;
#X obj 365 286 vd~ \$0-dly2;
#X obj 197 465 delwrite~ \$0-dly2 500;
#X obj 365 241 lop~ 1;
#X obj 365 109 inlet;
#X obj 365 131 / 127;
#X obj 365 153 * 499;
#X obj 365 175 + 10;
#X connect 0 0 22 0;
#X connect 1 0 14 0;
#X connect 3 0 22 0;
#X connect 4 0 5 0;
#X connect 5 0 12 0;
#X connect 6 0 7 0;
#X connect 7 0 19 0;
#X connect 11 0 6 0;
#X connect 12 0 11 0;
#X connect 13 0 3 1;
#X connect 14 0 23 0;
#X connect 15 0 16 0;
#X connect 16 0 17 0;
#X connect 17 0 14 1;
#X connect 19 0 13 0;
#X connect 20 0 19 1;
#X connect 21 0 2 0;
#X connect 21 0 3 0;
#X connect 23 0 21 0;
#X connect 24 0 25 0;
#X connect 25 0 26 0;
#X connect 26 0 27 0;
#X connect 27 0 1 0;
#X restore 622 210 pd delay2;
#X obj 438 285 +;
#X obj 487 247 snapshot~;
#X obj 487 269 t b f;
#X obj 487 227 bang~;
#X obj 146 -212 cnv 15 840 160 empty empty MIDI_CONTROL 400 12 0 14
-204800 -66577 0;
#X obj 157 -181 cnv 15 200 110 empty empty RATE-LEFT 20 12 0 14 -261234
-66577 0;
#X floatatom 166 -136 5 0 1 0 - - -;
#X obj 166 -115 line \$1 10;
#X obj 166 -93 s \$0-stereo-delay-rate-left-r;
#X obj 366 -181 cnv 15 200 110 empty empty RATE-RIGHT 20 12 0 14 -261682
-66577 0;
#X floatatom 376 -137 5 0 1 0 - - -;
#X obj 376 -116 line \$1 10;
#X obj 376 -91 s \$0-stereo-delay-rate-right-r;
#X obj 572 -181 cnv 15 200 110 empty empty FEEDBACK 20 12 0 14 -204786
-66577 0;
#X floatatom 583 -134 5 0 1 0 - - -;
#X obj 583 -113 line \$1 10;
#X obj 583 -91 s \$0-stereo-delay-feedback-r;
#X obj 778 -182 cnv 15 200 110 empty empty VOLUME_OUT 20 12 0 14 -203904
-66577 0;
#X floatatom 786 -137 5 0 1 0 - - -;
#X obj 786 -116 line \$1 10;
#X obj 786 -94 s \$0-stereo-delay-dry/wet-r;
#X msg 40 -34 64;
#X obj 40 -55 loadbang;
#X obj 98 -18 s \$0-stereo-delay-rate-left-r;
#X obj 98 3 s \$0-stereo-delay-rate-right-r;
#X obj 98 23 s \$0-stereo-delay-feedback-r;
#X obj 98 44 s \$0-stereo-delay-lowpass-r;
#X obj 98 64 s \$0-stereo-delay-dry/wet-r;
#X obj 318 -204 ctlin 43;
#N canvas 0 50 566 300 spigot~ 0;
#X obj 63 24 inlet~;
#X obj 119 38 == 0;
#X obj 174 75 == 1;
#X obj 64 174 *~;
#X obj 180 166 *~;
#X obj 179 246 outlet~;
#X obj 63 244 outlet~;
#X obj 233 23 inlet;
#X msg 174 99 \$1 20;
#X obj 174 118 line~;
#X msg 119 59 \$1 20;
#X obj 119 78 line~;
#X connect 0 0 3 0;
#X connect 0 0 4 0;
#X connect 1 0 10 0;
#X connect 2 0 8 0;
#X connect 3 0 6 0;
#X connect 4 0 5 0;
#X connect 7 0 1 0;
#X connect 7 0 2 0;
#X connect 8 0 9 0;
#X connect 9 0 4 1;
#X connect 10 0 11 0;
#X connect 11 0 3 1;
#X restore 18 236 pd spigot~;
#X obj 18 205 inlet~;
#X obj 18 572 +~;
#X obj 18 603 outlet~;
#X obj 846 574 +~;
#X obj 846 604 outlet~;
#N canvas 0 50 566 300 spigot~ 0;
#X obj 63 24 inlet~;
#X obj 119 38 == 0;
#X obj 174 75 == 1;
#X obj 64 174 *~;
#X obj 180 166 *~;
#X obj 179 246 outlet~;
#X obj 63 244 outlet~;
#X obj 233 23 inlet;
#X msg 174 99 \$1 20;
#X obj 174 118 line~;
#X msg 119 59 \$1 20;
#X obj 119 78 line~;
#X connect 0 0 3 0;
#X connect 0 0 4 0;
#X connect 1 0 10 0;
#X connect 2 0 8 0;
#X connect 3 0 6 0;
#X connect 4 0 5 0;
#X connect 7 0 1 0;
#X connect 7 0 2 0;
#X connect 8 0 9 0;
#X connect 9 0 4 1;
#X connect 10 0 11 0;
#X connect 11 0 3 1;
#X restore 846 195 pd spigot~;
#X obj 846 164 inlet~;
#X obj 903 489 *~;
#X obj 918 286 t f f;
#X msg 918 308 127 \$1;
#X obj 918 330 -;
#X obj 918 352 / 127;
#X obj 918 374 pack 0 50;
#X obj 918 396 line~;
#X obj 1054 431 / 127;
#X obj 1054 453 pack 0 50;
#X obj 1054 475 line~;
#X obj 903 519 hip~ 5;
#X obj 100 100 cnv 15 201 131 empty empty empty 20 12 0 14 -257985
-66577 0;
#X obj 106 143 hsl 128 15 0 127 0 1 \$0-stereo-delay-rate-left-s \$0-stereo-delay-rate-left-r
RATE-LEFT 133 7 0 10 -252782 -1 -1 6400 1;
#X obj 106 173 hsl 128 15 0 127 0 1 \$0-stereo-delay-feedback-s \$0-stereo-delay-feedback-r
FEEDBACK 133 7 0 10 -252782 -1 -1 6400 1;
#X obj 106 202 hsl 128 15 0 127 0 1 \$0-stereo-delay-dry/wet-s \$0-stereo-delay-dry/wet-r
VOL.OUT 133 7 0 10 -252782 -1 -1 6400 1;
#X obj 106 158 hsl 128 15 0 127 0 1 \$0-stereo-delay-rate-right-s \$0-stereo-delay-rate-right-r
RATE-RIGHT 133 7 0 10 -252782 -1 -1 6400 1;
#X obj 106 187 hsl 128 15 0 127 0 1 \$0-stereo-delay-lowpass-s \$0-stereo-delay-lowpass-r
LOWPASS 133 7 0 10 -252782 -1 -1 6400 1;
#X obj 103 120 tgl 20 0 empty empty ⌽_DELAY 22 8 0 15 -261234 -1
-1 1 1;
#X obj 104 106 cnv 5 5 5 empty empty IN_L 0 2 0 8 -247590 -1 0;
#X obj 274 106 cnv 5 5 5 empty empty IN_R 0 2 0 8 -247590 -1 0;
#X obj 104 224 cnv 5 5 5 empty empty OUT_L 0 2 0 8 -247590 -1 0;
#X obj 274 223 cnv 5 5 5 empty empty OUT_R 0 2 0 8 -247590 -1 0;
#X obj -49 49 loadbang;
#X obj 18 65 delay 50;
#X obj 18 85 b, f 1;
#X msg -49 104 1, f 1;
#X msg 44 84 0, f 1;
#X obj 583 -155;
#X obj 786 -158;
#X obj 376 -158;
#X obj 166 -157;
#X obj 330 48 inlet~;
#X obj 588 26 inlet~;
#X obj 460 81 inlet~;
#X obj 536 89 inlet~;
#X connect 0 0 13 0;
#X connect 1 0 12 0;
#X connect 2 0 0 0;
#X connect 3 0 4 0;
#X connect 3 1 9 0;
#X connect 4 0 5 0;
#X connect 5 0 6 0;
#X connect 6 0 7 0;
#X connect 7 0 8 0;
#X connect 8 0 1 1;
#X connect 9 0 10 0;
#X connect 10 0 11 0;
#X connect 11 0 2 1;
#X connect 12 0 13 0;
#X connect 13 0 14 0;
#X connect 14 0 67 1;
#X connect 15 0 30 0;
#X connect 16 0 18 0;
#X connect 17 0 16 0;
#X connect 18 0 19 0;
#X connect 19 0 69 1;
#X connect 21 0 15 3;
#X connect 22 0 23 0;
#X connect 23 0 17 0;
#X connect 24 0 36 0;
#X connect 25 0 26 0;
#X connect 26 0 27 0;
#X connect 27 0 28 0;
#X connect 28 0 32 0;
#X connect 29 0 24 0;
#X connect 30 0 31 0;
#X connect 31 0 2 0;
#X connect 32 0 30 1;
#X connect 32 1 31 1;
#X connect 32 2 22 1;
#X connect 32 3 23 1;
#X connect 33 0 35 3;
#X connect 35 0 22 0;
#X connect 36 0 25 0;
#X connect 37 0 38 0;
#X connect 38 0 36 0;
#X connect 38 1 36 1;
#X connect 39 0 37 0;
#X connect 42 0 43 0;
#X connect 43 0 44 0;
#X connect 46 0 47 0;
#X connect 47 0 48 0;
#X connect 50 0 51 0;
#X connect 51 0 52 0;
#X connect 54 0 55 0;
#X connect 55 0 56 0;
#X connect 57 0 59 0;
#X connect 57 0 60 0;
#X connect 57 0 61 0;
#X connect 57 0 62 0;
#X connect 57 0 63 0;
#X connect 58 0 57 0;
#X connect 64 0 43 0;
#X connect 64 0 47 0;
#X connect 65 0 67 0;
#X connect 65 1 15 0;
#X connect 65 1 1 0;
#X connect 66 0 65 0;
#X connect 66 0 71 0;
#X connect 67 0 68 0;
#X connect 69 0 70 0;
#X connect 71 0 69 0;
#X connect 71 1 35 0;
#X connect 71 1 73 0;
#X connect 73 0 83 0;
#X connect 74 0 75 0;
#X connect 74 1 80 0;
#X connect 75 0 76 0;
#X connect 76 0 77 0;
#X connect 77 0 78 0;
#X connect 78 0 79 0;
#X connect 79 0 73 1;
#X connect 80 0 81 0;
#X connect 81 0 82 0;
#X connect 82 0 17 1;
#X connect 83 0 18 0;
#X connect 87 0 3 0;
#X connect 87 0 74 0;
#X connect 90 0 65 1;
#X connect 90 0 71 1;
#X connect 95 0 96 0;
#X connect 95 0 98 0;
#X connect 96 0 97 0;
#X connect 97 0 99 0;
#X connect 98 0 90 0;
#X connect 100 0 50 0;
#X connect 101 0 54 0;
#X connect 102 0 46 0;
#X connect 103 0 42 0;
#X connect 104 0 15 2;
#X connect 105 0 35 2;
#X connect 106 0 15 4;
#X connect 107 0 35 4;
#X coords 0 -1 1 1 202 132 2 100 100;
