#N canvas 1358 -8 1920 1007 12;
#X obj 413 484 vu 15 120 empty empty -1 -8 0 10 -66577 -1 0 0;
#X obj 341 477 env~;
#X obj 341 500 - 100;
#X obj 352 426 *~;
#X obj 241 264 *~;
#X obj 241 364 clip~ -1 1;
#X obj 241 339 *~ 1;
#N canvas 1661 138 858 752 mid 0;
#X obj 109 68 inlet~;
#X obj 109 591 outlet~;
#X obj 164 89 / 127;
#X obj 164 133 + 150;
#X floatatom 164 155 5 0 0 0 - - -;
#X obj 164 111 * 3350;
#X obj 125 261 pack 0 50;
#X obj 125 287 line~;
#X obj 109 540 *~;
#X floatatom 392 151 5 0 0 0 - - -;
#X floatatom 449 153 5 0 0 0 - - -;
#X obj 392 100 moses 63.5;
#X obj 449 131 / 63.5;
#X obj 392 129 / 63.5;
#X obj 449 172 * 10;
#X floatatom 449 194 5 0 0 0 - - -;
#X obj 449 213 - 10;
#X floatatom 449 235 5 0 0 0 - - -;
#X obj 449 336 pack 0 50;
#X obj 449 267 spigot;
#X obj 392 61 t f f;
#X obj 517 78 > 63.5;
#X floatatom 517 104 5 0 0 0 - - -;
#X obj 517 143 t f f;
#X obj 391 300 spigot;
#X obj 544 283 == 0;
#X obj 610 60 / 127;
#X obj 610 82 * 20;
#X obj 610 104 - 10;
#X obj 610 126 i;
#X floatatom 610 151 5 0 0 0 - - -;
#X obj 449 523 line~;
#X obj 210 224 i;
#X obj 125 207 t f f;
#X msg 210 246 label MID-FREQ:\$1;
#X obj 109 312 vcf~ 3;
#X obj 109 334 vcf~ 3;
#X obj 109 358 vcf~ 3;
#X obj 109 380 vcf~ 3;
#X msg 610 171 label MID-GAIN:\$1;
#X obj 164 67 r \$0-channel1-eq-mid-freq-s;
#X obj 210 268 s \$0-channel1-eq-mid-freq-r;
#X obj 392 39 r \$0-channel1-eq-mid-gain-s;
#X obj 610 38 r \$0-channel1-eq-mid-gain-s;
#X obj 610 193 s \$0-channel1-eq-mid-gain-r;
#X obj 230 154 loadbang;
#X msg 195 182 2000;
#X msg 325 173 -3;
#X connect 0 0 35 0;
#X connect 2 0 5 0;
#X connect 3 0 4 0;
#X connect 5 0 3 0;
#X connect 6 0 7 0;
#X connect 7 0 35 1;
#X connect 7 0 36 1;
#X connect 7 0 37 1;
#X connect 7 0 38 1;
#X connect 8 0 1 0;
#X connect 9 0 24 0;
#X connect 10 0 14 0;
#X connect 11 0 13 0;
#X connect 11 1 12 0;
#X connect 12 0 10 0;
#X connect 13 0 9 0;
#X connect 14 0 15 0;
#X connect 15 0 16 0;
#X connect 16 0 17 0;
#X connect 17 0 19 0;
#X connect 18 0 31 0;
#X connect 19 0 18 0;
#X connect 20 0 11 0;
#X connect 20 1 21 0;
#X connect 21 0 22 0;
#X connect 22 0 23 0;
#X connect 23 0 19 1;
#X connect 23 1 25 0;
#X connect 24 0 18 0;
#X connect 25 0 24 1;
#X connect 26 0 27 0;
#X connect 27 0 28 0;
#X connect 28 0 29 0;
#X connect 29 0 30 0;
#X connect 31 0 8 1;
#X connect 32 0 34 0;
#X connect 33 0 6 0;
#X connect 33 1 32 0;
#X connect 34 0 41 0;
#X connect 35 0 36 0;
#X connect 36 0 37 0;
#X connect 37 0 38 0;
#X connect 38 0 8 0;
#X connect 39 0 44 0;
#X connect 40 0 2 0;
#X connect 42 0 20 0;
#X connect 43 0 26 0;
#X connect 45 0 46 0;
#X connect 45 0 47 0;
#X connect 46 0 33 0;
#X connect 47 0 23 0;
#X connect 47 0 39 0;
#X restore 241 296 pd mid;
#N canvas 1640 174 858 752 high 0;
#X obj 126 21 inlet~;
#X obj 126 544 outlet~;
#X obj 182 36 / 127;
#X floatatom 182 102 5 0 0 0 - - -;
#X obj 142 214 pack 0 50;
#X obj 142 240 line~;
#X obj 126 493 *~;
#X floatatom 409 104 5 0 0 0 - - -;
#X floatatom 466 106 5 0 0 0 - - -;
#X obj 409 53 moses 63.5;
#X obj 466 84 / 63.5;
#X obj 409 82 / 63.5;
#X obj 466 125 * 10;
#X floatatom 466 147 5 0 0 0 - - -;
#X obj 466 166 - 10;
#X floatatom 466 188 5 0 0 0 - - -;
#X obj 466 289 pack 0 50;
#X obj 466 220 spigot;
#X obj 409 14 t f f;
#X obj 534 31 > 63.5;
#X floatatom 534 57 5 0 0 0 - - -;
#X obj 534 76 t f f;
#X obj 408 253 spigot;
#X obj 561 236 == 0;
#X obj 626 13 / 127;
#X obj 626 35 * 20;
#X obj 626 57 - 10;
#X obj 626 79 i;
#X floatatom 625 101 5 0 0 0 - - -;
#X obj 466 476 line~;
#X obj 227 177 i;
#X obj 142 160 t f f;
#X obj 126 265 vcf~ 3;
#X obj 126 287 vcf~ 3;
#X obj 126 311 vcf~ 3;
#X obj 126 333 vcf~ 3;
#X obj 182 80 + 3350;
#X msg 227 199 label HIGH-FREQ:\$1;
#X msg 626 124 label HIGH-GAIN:\$1;
#X obj 182 58 * 6649;
#X obj 182 14 r \$0-channel1-eq-high-freq-s;
#X obj 227 221 s \$0-channel1-eq-high-freq-r;
#X obj 409 -8 r \$0-channel1-eq-high-gain-s;
#X obj 626 -9 r \$0-channel1-eq-high-gain-s;
#X obj 626 146 s \$0-channel1-eq-high-gain-r;
#X obj 252 107 loadbang;
#X msg 321 148 3;
#X msg 216 134 10000;
#X connect 0 0 32 0;
#X connect 2 0 39 0;
#X connect 4 0 5 0;
#X connect 5 0 32 1;
#X connect 5 0 33 1;
#X connect 5 0 34 1;
#X connect 5 0 35 1;
#X connect 6 0 1 0;
#X connect 7 0 22 0;
#X connect 8 0 12 0;
#X connect 9 0 11 0;
#X connect 9 1 10 0;
#X connect 10 0 8 0;
#X connect 11 0 7 0;
#X connect 12 0 13 0;
#X connect 13 0 14 0;
#X connect 14 0 15 0;
#X connect 15 0 17 0;
#X connect 16 0 29 0;
#X connect 17 0 16 0;
#X connect 18 0 9 0;
#X connect 18 1 19 0;
#X connect 19 0 20 0;
#X connect 20 0 21 0;
#X connect 21 0 17 1;
#X connect 21 1 23 0;
#X connect 22 0 16 0;
#X connect 23 0 22 1;
#X connect 24 0 25 0;
#X connect 25 0 26 0;
#X connect 26 0 27 0;
#X connect 27 0 28 0;
#X connect 29 0 6 1;
#X connect 30 0 37 0;
#X connect 31 0 4 0;
#X connect 31 1 30 0;
#X connect 32 0 33 0;
#X connect 33 0 34 0;
#X connect 34 0 35 0;
#X connect 35 0 6 0;
#X connect 36 0 3 0;
#X connect 37 0 41 0;
#X connect 38 0 44 0;
#X connect 39 0 36 0;
#X connect 40 0 2 0;
#X connect 42 0 18 0;
#X connect 43 0 24 0;
#X connect 45 0 47 0;
#X connect 45 0 46 0;
#X connect 46 0 38 0;
#X connect 47 0 31 0;
#X restore 291 296 pd high;
#N canvas 1752 121 858 752 low 0;
#X obj 126 21 inlet~;
#X obj 126 544 outlet~;
#X obj 181 33 / 127;
#X floatatom 181 99 5 0 0 0 - - -;
#X obj 142 214 pack 0 50;
#X obj 142 240 line~;
#X obj 126 493 *~;
#X floatatom 409 104 5 0 0 0 - - -;
#X floatatom 466 106 5 0 0 0 - - -;
#X obj 409 53 moses 63.5;
#X obj 466 84 / 63.5;
#X obj 409 82 / 63.5;
#X obj 466 125 * 10;
#X floatatom 466 147 5 0 0 0 - - -;
#X obj 466 166 - 10;
#X floatatom 466 188 5 0 0 0 - - -;
#X obj 466 289 pack 0 50;
#X obj 466 220 spigot;
#X obj 409 14 t f f;
#X obj 534 31 > 63.5;
#X floatatom 534 57 5 0 0 0 - - -;
#X obj 534 96 t f f;
#X obj 408 253 spigot;
#X obj 561 236 == 0;
#X obj 626 13 / 127;
#X obj 626 35 * 20;
#X obj 626 57 - 10;
#X obj 626 79 i;
#X floatatom 626 102 5 0 0 0 - - -;
#X obj 466 476 line~;
#X obj 227 177 i;
#X obj 142 160 t f f;
#X obj 126 265 vcf~ 3;
#X obj 126 287 vcf~ 3;
#X obj 126 311 vcf~ 3;
#X obj 126 333 vcf~ 3;
#X msg 227 199 label LOW-FREQ:\$1;
#X msg 626 124 label LOW-GAIN:\$1;
#X obj 181 55 * 120;
#X obj 181 77 + 30;
#X obj 181 11 r \$0-channel1-eq-low-freq-s;
#X obj 227 221 s \$0-channel1-eq-low-freq-r;
#X obj 409 -8 r \$0-channel1-eq-low-gain-s;
#X obj 626 -9 r \$0-channel1-eq-low-gain-s;
#X obj 626 146 s \$0-channel1-eq-low-gain-r;
#X obj 225 108 loadbang;
#X msg 195 133 100;
#X msg 329 139 10;
#X connect 0 0 32 0;
#X connect 2 0 38 0;
#X connect 4 0 5 0;
#X connect 5 0 32 1;
#X connect 5 0 33 1;
#X connect 5 0 34 1;
#X connect 5 0 35 1;
#X connect 6 0 1 0;
#X connect 7 0 22 0;
#X connect 8 0 12 0;
#X connect 9 0 11 0;
#X connect 9 1 10 0;
#X connect 10 0 8 0;
#X connect 11 0 7 0;
#X connect 12 0 13 0;
#X connect 13 0 14 0;
#X connect 14 0 15 0;
#X connect 15 0 17 0;
#X connect 16 0 29 0;
#X connect 17 0 16 0;
#X connect 18 0 9 0;
#X connect 18 1 19 0;
#X connect 19 0 20 0;
#X connect 21 0 17 1;
#X connect 21 1 23 0;
#X connect 22 0 16 0;
#X connect 23 0 22 1;
#X connect 24 0 25 0;
#X connect 25 0 26 0;
#X connect 26 0 27 0;
#X connect 27 0 28 0;
#X connect 29 0 6 1;
#X connect 30 0 36 0;
#X connect 31 0 4 0;
#X connect 31 1 30 0;
#X connect 32 0 33 0;
#X connect 33 0 34 0;
#X connect 34 0 35 0;
#X connect 35 0 6 0;
#X connect 36 0 41 0;
#X connect 37 0 44 0;
#X connect 38 0 39 0;
#X connect 39 0 3 0;
#X connect 40 0 2 0;
#X connect 42 0 18 0;
#X connect 43 0 24 0;
#X connect 45 0 46 0;
#X connect 45 0 47 0;
#X connect 46 0 31 0;
#X connect 47 0 21 0;
#X connect 47 0 37 0;
#X restore 193 296 pd low;
#X obj 437 545 hsl 84 15 0 127 0 1 \$0-channel1-eq-mid-gain-s \$0-channel1-eq-mid-gain-r
MID-GAIN:-3 0 7 0 10 -212356 -1 -1 4150 1;
#X obj 437 575 hsl 84 15 0 127 0 1 \$0-channel1-eq-low-gain-s \$0-channel1-eq-low-gain-r
LOW-GAIN:10 0 7 0 10 -9136 -1 -1 4150 1;
#X obj 437 500 hsl 84 15 0 127 0 1 \$0-channel1-eq-high-freq-s \$0-channel1-eq-high-freq-r
HIGH-FREQ:10000 0 7 0 10 -254621 -1 -1 4150 1;
#X obj 437 515 hsl 84 15 0 127 0 1 \$0-channel1-eq-high-gain-s \$0-channel1-eq-high-gain-r
HIGH-GAIN:3 0 7 0 10 -204820 -1 -1 4150 1;
#N canvas 2 22 1067 752 state-saving-multiple-instances 0;
#X obj 138 28 loadbang;
#X obj 138 61 t b b;
#X obj 42 691 textfile;
#X obj 43 357 f;
#X obj 56 580 f;
#X obj -19 403 t b b b;
#X msg 119 580 clear;
#X obj 230 207 outlet;
#X text 250 242 INSTANCE NUMBER;
#X obj 165 152 f \$1;
#X obj 165 188 t f f f;
#X obj -19 378 bng 15 250 50 0 empty empty empty 17 7 0 10 -262144
-1 -1;
#X obj -19 274 r SAVE-S;
#X msg 55 651 write statesave/\$1-channel-eq-ss.txt;
#X obj 43 400 pack f f f f f f;
#X msg 43 438 set \$1 \$2 \$3 \$4 \$5 \$6;
#X obj 47 241 r \$0-channel1-eq-high-freq-s;
#X obj 61 275 r \$0-channel1-eq-high-gain-s;
#X obj 80 299 r \$0-channel1-eq-mid-freq-s;
#X obj 98 324 r \$0-channel1-eq-mid-gain-s;
#X obj 117 348 r \$0-channel1-eq-low-freq-s;
#X obj 136 373 r \$0-channel1-eq-low-gain-s;
#X connect 0 0 1 0;
#X connect 1 1 9 0;
#X connect 3 0 14 0;
#X connect 4 0 13 0;
#X connect 5 0 4 0;
#X connect 5 1 3 0;
#X connect 5 2 6 0;
#X connect 6 0 2 0;
#X connect 9 0 10 0;
#X connect 10 0 4 1;
#X connect 10 2 7 0;
#X connect 11 0 5 0;
#X connect 12 0 11 0;
#X connect 13 0 2 0;
#X connect 14 0 15 0;
#X connect 15 0 2 0;
#X connect 16 0 3 1;
#X connect 17 0 14 1;
#X connect 18 0 14 2;
#X connect 19 0 14 3;
#X connect 20 0 14 4;
#X connect 21 0 14 5;
#X restore 105 576 pd state-saving-multiple-instances;
#X obj 105 642 s \$0-instance-num;
#X obj 105 598 makefilename %d;
#X msg 105 620 label \$1;
#N canvas 81 22 1117 745 state-saving-via-preset-manager-module 0;
#X obj 496 252 textfile;
#X msg 774 235 rewind;
#X msg 731 235 bang;
#X obj 183 690 textfile;
#X obj 731 196 t b b;
#X obj 184 356 f;
#X obj 197 579 f;
#X obj 130 474 t b b b;
#X msg 313 621 clear;
#X obj 184 180 delay 5;
#X obj 130 529 delay 10;
#X msg 130 314 bang;
#X obj 130 155 r STORE-S!;
#X obj 496 153 f;
#X obj 469 110 t b b;
#X obj 484 74 t b f;
#X obj 541 171 f \$1;
#X obj 496 198 pack f f;
#X obj 541 121 loadbang;
#X obj 197 609 pack f f;
#X obj 242 562 loadbang;
#X obj 242 584 f \$1;
#X obj 484 51 r preset-manager-scan;
#X obj 212 540 r preset-manager-store-slot;
#X msg 196 650 write statesave/\$1-\$2-channel-eq-ss.txt;
#X msg 496 227 read statesave/\$1-\$2-channel-eq-ss.txt;
#X obj 184 423 pack f f f f f f;
#X msg 183 490 set \$1 \$2 \$3 \$4 \$5 \$6;
#X obj 496 274 unpack f f f f f f;
#N canvas 0 22 1069 747 morph-frequencies 0;
#X obj 176 94 inlet;
#X obj 176 236 pack f f;
#X obj 176 261 line;
#X obj 209 117 r preset-manager-morph-s;
#X msg 72 244 stop;
#X obj 72 214 r STOP-MORPH!;
#X obj 398 102 r frequencies-s;
#X obj 209 206 spigot;
#X obj 398 137 t f f;
#X obj 455 154 == 0;
#X obj 221 176 f;
#X floatatom 455 222 5 0 0 0 - - -;
#X obj 398 159 t b f;
#X floatatom 425 192 5 0 0 0 - - -;
#X obj 209 139 t f f;
#X obj 176 283 outlet;
#X connect 0 0 1 0;
#X connect 1 0 2 0;
#X connect 2 0 15 0;
#X connect 3 0 14 0;
#X connect 4 0 2 0;
#X connect 5 0 4 0;
#X connect 6 0 8 0;
#X connect 7 0 1 1;
#X connect 8 0 12 0;
#X connect 8 1 9 0;
#X connect 9 0 11 0;
#X connect 10 0 7 0;
#X connect 11 0 1 1;
#X connect 12 0 10 0;
#X connect 12 1 13 0;
#X connect 13 0 7 1;
#X connect 14 0 7 0;
#X connect 14 1 10 1;
#X restore 496 699 pd morph-frequencies;
#N canvas 0 22 1069 747 morph-attenuators 0;
#X obj 176 94 inlet;
#X obj 176 236 pack f f;
#X obj 176 261 line;
#X obj 209 117 r preset-manager-morph-s;
#X msg 72 244 stop;
#X obj 72 214 r STOP-MORPH!;
#X obj 209 206 spigot;
#X obj 398 137 t f f;
#X obj 455 154 == 0;
#X obj 221 176 f;
#X floatatom 455 222 5 0 0 0 - - -;
#X obj 398 159 t b f;
#X floatatom 425 192 5 0 0 0 - - -;
#X obj 209 139 t f f;
#X obj 398 102 r attenuators-s;
#X obj 176 288 outlet;
#X connect 0 0 1 0;
#X connect 1 0 2 0;
#X connect 2 0 15 0;
#X connect 3 0 13 0;
#X connect 4 0 2 0;
#X connect 5 0 4 0;
#X connect 6 0 1 1;
#X connect 7 0 11 0;
#X connect 7 1 8 0;
#X connect 8 0 10 0;
#X connect 9 0 6 0;
#X connect 10 0 1 1;
#X connect 11 0 9 0;
#X connect 11 1 12 0;
#X connect 12 0 6 1;
#X connect 13 0 6 0;
#X connect 13 1 9 1;
#X connect 14 0 7 0;
#X restore 517 648 pd morph-attenuators;
#N canvas 0 22 1069 747 morph-frequencies 0;
#X obj 176 94 inlet;
#X obj 176 236 pack f f;
#X obj 176 261 line;
#X obj 209 117 r preset-manager-morph-s;
#X msg 72 244 stop;
#X obj 72 214 r STOP-MORPH!;
#X obj 398 102 r frequencies-s;
#X obj 209 206 spigot;
#X obj 398 137 t f f;
#X obj 455 154 == 0;
#X obj 221 176 f;
#X floatatom 455 222 5 0 0 0 - - -;
#X obj 398 159 t b f;
#X floatatom 425 192 5 0 0 0 - - -;
#X obj 209 139 t f f;
#X obj 176 283 outlet;
#X connect 0 0 1 0;
#X connect 1 0 2 0;
#X connect 2 0 15 0;
#X connect 3 0 14 0;
#X connect 4 0 2 0;
#X connect 5 0 4 0;
#X connect 6 0 8 0;
#X connect 7 0 1 1;
#X connect 8 0 12 0;
#X connect 8 1 9 0;
#X connect 9 0 11 0;
#X connect 10 0 7 0;
#X connect 11 0 1 1;
#X connect 12 0 10 0;
#X connect 12 1 13 0;
#X connect 13 0 7 1;
#X connect 14 0 7 0;
#X connect 14 1 10 1;
#X restore 536 586 pd morph-frequencies;
#N canvas 0 22 1069 747 morph-attenuators 0;
#X obj 176 94 inlet;
#X obj 176 236 pack f f;
#X obj 176 261 line;
#X obj 209 117 r preset-manager-morph-s;
#X msg 72 244 stop;
#X obj 72 214 r STOP-MORPH!;
#X obj 209 206 spigot;
#X obj 398 137 t f f;
#X obj 455 154 == 0;
#X obj 221 176 f;
#X floatatom 455 222 5 0 0 0 - - -;
#X obj 398 159 t b f;
#X floatatom 425 192 5 0 0 0 - - -;
#X obj 209 139 t f f;
#X obj 398 102 r attenuators-s;
#X obj 176 288 outlet;
#X connect 0 0 1 0;
#X connect 1 0 2 0;
#X connect 2 0 15 0;
#X connect 3 0 13 0;
#X connect 4 0 2 0;
#X connect 5 0 4 0;
#X connect 6 0 1 1;
#X connect 7 0 11 0;
#X connect 7 1 8 0;
#X connect 8 0 10 0;
#X connect 9 0 6 0;
#X connect 10 0 1 1;
#X connect 11 0 9 0;
#X connect 11 1 12 0;
#X connect 12 0 6 1;
#X connect 13 0 6 0;
#X connect 13 1 9 1;
#X connect 14 0 7 0;
#X restore 557 535 pd morph-attenuators;
#N canvas 0 22 1069 747 morph-frequencies 0;
#X obj 176 94 inlet;
#X obj 176 236 pack f f;
#X obj 176 261 line;
#X obj 209 117 r preset-manager-morph-s;
#X msg 72 244 stop;
#X obj 72 214 r STOP-MORPH!;
#X obj 398 102 r frequencies-s;
#X obj 209 206 spigot;
#X obj 398 137 t f f;
#X obj 455 154 == 0;
#X obj 221 176 f;
#X floatatom 455 222 5 0 0 0 - - -;
#X obj 398 159 t b f;
#X floatatom 425 192 5 0 0 0 - - -;
#X obj 209 139 t f f;
#X obj 176 283 outlet;
#X connect 0 0 1 0;
#X connect 1 0 2 0;
#X connect 2 0 15 0;
#X connect 3 0 14 0;
#X connect 4 0 2 0;
#X connect 5 0 4 0;
#X connect 6 0 8 0;
#X connect 7 0 1 1;
#X connect 8 0 12 0;
#X connect 8 1 9 0;
#X connect 9 0 11 0;
#X connect 10 0 7 0;
#X connect 11 0 1 1;
#X connect 12 0 10 0;
#X connect 12 1 13 0;
#X connect 13 0 7 1;
#X connect 14 0 7 0;
#X connect 14 1 10 1;
#X restore 582 472 pd morph-frequencies;
#N canvas 0 22 1069 747 morph-attenuators 0;
#X obj 176 94 inlet;
#X obj 176 236 pack f f;
#X obj 176 261 line;
#X obj 209 117 r preset-manager-morph-s;
#X msg 72 244 stop;
#X obj 72 214 r STOP-MORPH!;
#X obj 209 206 spigot;
#X obj 398 137 t f f;
#X obj 455 154 == 0;
#X obj 221 176 f;
#X floatatom 455 222 5 0 0 0 - - -;
#X obj 398 159 t b f;
#X floatatom 425 192 5 0 0 0 - - -;
#X obj 209 139 t f f;
#X obj 398 102 r attenuators-s;
#X obj 176 288 outlet;
#X connect 0 0 1 0;
#X connect 1 0 2 0;
#X connect 2 0 15 0;
#X connect 3 0 13 0;
#X connect 4 0 2 0;
#X connect 5 0 4 0;
#X connect 6 0 1 1;
#X connect 7 0 11 0;
#X connect 7 1 8 0;
#X connect 8 0 10 0;
#X connect 9 0 6 0;
#X connect 10 0 1 1;
#X connect 11 0 9 0;
#X connect 11 1 12 0;
#X connect 12 0 6 1;
#X connect 13 0 6 0;
#X connect 13 1 9 1;
#X connect 14 0 7 0;
#X restore 603 421 pd morph-attenuators;
#X obj 199 258 r \$0-channel1-eq-high-freq-s;
#X obj 207 280 r \$0-channel1-eq-high-gain-s;
#X obj 230 302 r \$0-channel1-eq-mid-freq-s;
#X obj 253 324 r \$0-channel1-eq-mid-gain-s;
#X obj 268 349 r \$0-channel1-eq-low-freq-s;
#X obj 496 725 s \$0-channel1-eq-high-freq-r;
#X obj 517 674 s \$0-channel1-eq-high-gain-r;
#X obj 536 612 s \$0-channel1-eq-mid-freq-r;
#X obj 557 561 s \$0-channel1-eq-mid-gain-r;
#X obj 582 498 s \$0-channel1-eq-low-freq-r;
#X obj 603 447 s \$0-channel1-eq-low-gain-r;
#X obj 291 371 r \$0-channel1-eq-low-gain-s;
#X connect 0 0 28 0;
#X connect 1 0 0 0;
#X connect 2 0 0 0;
#X connect 4 0 2 0;
#X connect 4 1 1 0;
#X connect 5 0 26 0;
#X connect 6 0 19 0;
#X connect 7 0 10 0;
#X connect 7 1 9 0;
#X connect 7 2 8 0;
#X connect 8 0 3 0;
#X connect 9 0 5 0;
#X connect 10 0 6 0;
#X connect 11 0 7 0;
#X connect 12 0 11 0;
#X connect 13 0 17 0;
#X connect 14 0 4 0;
#X connect 14 1 13 0;
#X connect 15 0 14 0;
#X connect 15 1 13 1;
#X connect 16 0 17 1;
#X connect 17 0 25 0;
#X connect 18 0 16 0;
#X connect 19 0 24 0;
#X connect 20 0 21 0;
#X connect 21 0 19 1;
#X connect 22 0 15 0;
#X connect 23 0 6 1;
#X connect 24 0 3 0;
#X connect 25 0 0 0;
#X connect 26 0 27 0;
#X connect 27 0 3 0;
#X connect 28 0 29 0;
#X connect 28 1 30 0;
#X connect 28 2 31 0;
#X connect 28 3 32 0;
#X connect 28 4 33 0;
#X connect 28 5 34 0;
#X connect 29 0 40 0;
#X connect 30 0 41 0;
#X connect 31 0 42 0;
#X connect 32 0 43 0;
#X connect 33 0 44 0;
#X connect 34 0 45 0;
#X connect 35 0 5 1;
#X connect 36 0 26 1;
#X connect 37 0 26 2;
#X connect 38 0 26 3;
#X connect 39 0 26 4;
#X connect 46 0 26 5;
#X restore 105 555 pd state-saving-via-preset-manager-module;
#N canvas 0 22 1280 756 parameter-nudging-system 0;
#X obj 12 206 clip 0 127;
#X obj 214 208 clip 0 127;
#N canvas 0 22 484 497 nudge-attenuators 0;
#X obj 124 234 random;
#X obj 232 335 f;
#X obj 232 368 +;
#X obj 257 166 random 2;
#X obj 124 275 t f f;
#X obj 124 351 t b f;
#X obj 124 297 *;
#X obj 257 188 sel 0 1;
#X msg 257 280 -1;
#X msg 335 280 1;
#X obj 124 149 t b b b;
#X obj 124 71 r NUDGE!;
#X obj 157 193 r NUDGE-RANGE;
#X obj 247 308 inlet;
#X obj 232 397 outlet;
#X obj 124 93 spigot;
#X obj 201 76 r attenuators2-s;
#X connect 0 0 4 0;
#X connect 1 0 2 0;
#X connect 2 0 14 0;
#X connect 3 0 7 0;
#X connect 4 0 6 0;
#X connect 5 0 2 0;
#X connect 5 1 2 1;
#X connect 6 0 5 0;
#X connect 7 0 8 0;
#X connect 7 1 9 0;
#X connect 8 0 6 1;
#X connect 9 0 6 1;
#X connect 10 0 0 0;
#X connect 10 1 1 0;
#X connect 10 2 3 0;
#X connect 11 0 15 0;
#X connect 12 0 0 1;
#X connect 13 0 1 1;
#X connect 15 0 10 0;
#X connect 16 0 15 1;
#X restore 214 184 pd nudge-attenuators;
#N canvas 0 22 484 497 nudge-frequencies 0;
#X obj 124 234 random;
#X obj 232 335 f;
#X obj 232 368 +;
#X obj 257 166 random 2;
#X obj 124 275 t f f;
#X obj 124 351 t b f;
#X obj 124 297 *;
#X obj 257 188 sel 0 1;
#X msg 257 280 -1;
#X msg 335 280 1;
#X obj 124 149 t b b b;
#X obj 124 74 r NUDGE!;
#X obj 157 193 r NUDGE-RANGE;
#X obj 247 308 inlet;
#X obj 232 397 outlet;
#X obj 124 96 spigot;
#X obj 185 79 r frequencies2-s;
#X connect 0 0 4 0;
#X connect 1 0 2 0;
#X connect 2 0 14 0;
#X connect 3 0 7 0;
#X connect 4 0 6 0;
#X connect 5 0 2 0;
#X connect 5 1 2 1;
#X connect 6 0 5 0;
#X connect 7 0 8 0;
#X connect 7 1 9 0;
#X connect 8 0 6 1;
#X connect 9 0 6 1;
#X connect 10 0 0 0;
#X connect 10 1 1 0;
#X connect 10 2 3 0;
#X connect 11 0 15 0;
#X connect 12 0 0 1;
#X connect 13 0 1 1;
#X connect 15 0 10 0;
#X connect 16 0 15 1;
#X restore 12 183 pd nudge-frequencies;
#X obj 10 99 clip 0 127;
#X obj 222 101 clip 0 127;
#N canvas 0 22 484 497 nudge-attenuators 0;
#X obj 124 234 random;
#X obj 232 335 f;
#X obj 232 368 +;
#X obj 257 166 random 2;
#X obj 124 275 t f f;
#X obj 124 351 t b f;
#X obj 124 297 *;
#X obj 257 188 sel 0 1;
#X msg 257 280 -1;
#X msg 335 280 1;
#X obj 124 149 t b b b;
#X obj 124 71 r NUDGE!;
#X obj 157 193 r NUDGE-RANGE;
#X obj 247 308 inlet;
#X obj 232 397 outlet;
#X obj 124 93 spigot;
#X obj 201 76 r attenuators2-s;
#X connect 0 0 4 0;
#X connect 1 0 2 0;
#X connect 2 0 14 0;
#X connect 3 0 7 0;
#X connect 4 0 6 0;
#X connect 5 0 2 0;
#X connect 5 1 2 1;
#X connect 6 0 5 0;
#X connect 7 0 8 0;
#X connect 7 1 9 0;
#X connect 8 0 6 1;
#X connect 9 0 6 1;
#X connect 10 0 0 0;
#X connect 10 1 1 0;
#X connect 10 2 3 0;
#X connect 11 0 15 0;
#X connect 12 0 0 1;
#X connect 13 0 1 1;
#X connect 15 0 10 0;
#X connect 16 0 15 1;
#X restore 222 77 pd nudge-attenuators;
#N canvas 0 22 1113 497 nudge-frequencies 0;
#X obj 124 234 random;
#X obj 232 335 f;
#X obj 232 368 +;
#X obj 257 166 random 2;
#X obj 124 275 t f f;
#X obj 124 351 t b f;
#X obj 124 297 *;
#X obj 257 188 sel 0 1;
#X msg 257 280 -1;
#X msg 335 280 1;
#X obj 124 149 t b b b;
#X obj 124 74 r NUDGE!;
#X obj 157 193 r NUDGE-RANGE;
#X obj 247 308 inlet;
#X obj 232 397 outlet;
#X obj 124 96 spigot;
#X obj 185 79 r frequencies2-s;
#X connect 0 0 4 0;
#X connect 1 0 2 0;
#X connect 2 0 14 0;
#X connect 3 0 7 0;
#X connect 4 0 6 0;
#X connect 5 0 2 0;
#X connect 5 1 2 1;
#X connect 6 0 5 0;
#X connect 7 0 8 0;
#X connect 7 1 9 0;
#X connect 8 0 6 1;
#X connect 9 0 6 1;
#X connect 10 0 0 0;
#X connect 10 1 1 0;
#X connect 10 2 3 0;
#X connect 11 0 15 0;
#X connect 12 0 0 1;
#X connect 13 0 1 1;
#X connect 15 0 10 0;
#X connect 16 0 15 1;
#X restore 10 76 pd nudge-frequencies;
#X obj 22 311 clip 0 127;
#X obj 224 313 clip 0 127;
#N canvas 0 22 484 497 nudge-attenuators 0;
#X obj 124 234 random;
#X obj 232 335 f;
#X obj 232 368 +;
#X obj 257 166 random 2;
#X obj 124 275 t f f;
#X obj 124 351 t b f;
#X obj 124 297 *;
#X obj 257 188 sel 0 1;
#X msg 257 280 -1;
#X msg 335 280 1;
#X obj 124 149 t b b b;
#X obj 124 71 r NUDGE!;
#X obj 157 193 r NUDGE-RANGE;
#X obj 247 308 inlet;
#X obj 232 397 outlet;
#X obj 124 93 spigot;
#X obj 201 76 r attenuators2-s;
#X connect 0 0 4 0;
#X connect 1 0 2 0;
#X connect 2 0 14 0;
#X connect 3 0 7 0;
#X connect 4 0 6 0;
#X connect 5 0 2 0;
#X connect 5 1 2 1;
#X connect 6 0 5 0;
#X connect 7 0 8 0;
#X connect 7 1 9 0;
#X connect 8 0 6 1;
#X connect 9 0 6 1;
#X connect 10 0 0 0;
#X connect 10 1 1 0;
#X connect 10 2 3 0;
#X connect 11 0 15 0;
#X connect 12 0 0 1;
#X connect 13 0 1 1;
#X connect 15 0 10 0;
#X connect 16 0 15 1;
#X restore 224 289 pd nudge-attenuators;
#N canvas 0 22 484 497 nudge-frequencies 0;
#X obj 124 234 random;
#X obj 232 335 f;
#X obj 232 368 +;
#X obj 257 166 random 2;
#X obj 124 275 t f f;
#X obj 124 351 t b f;
#X obj 124 297 *;
#X obj 257 188 sel 0 1;
#X msg 257 280 -1;
#X msg 335 280 1;
#X obj 124 149 t b b b;
#X obj 124 74 r NUDGE!;
#X obj 157 193 r NUDGE-RANGE;
#X obj 247 308 inlet;
#X obj 232 397 outlet;
#X obj 124 96 spigot;
#X obj 185 79 r frequencies2-s;
#X connect 0 0 4 0;
#X connect 1 0 2 0;
#X connect 2 0 14 0;
#X connect 3 0 7 0;
#X connect 4 0 6 0;
#X connect 5 0 2 0;
#X connect 5 1 2 1;
#X connect 6 0 5 0;
#X connect 7 0 8 0;
#X connect 7 1 9 0;
#X connect 8 0 6 1;
#X connect 9 0 6 1;
#X connect 10 0 0 0;
#X connect 10 1 1 0;
#X connect 10 2 3 0;
#X connect 11 0 15 0;
#X connect 12 0 0 1;
#X connect 13 0 1 1;
#X connect 15 0 10 0;
#X connect 16 0 15 1;
#X restore 22 288 pd nudge-frequencies;
#X obj 10 54 r \$0-channel1-eq-high-freq-s;
#X obj 10 127 s \$0-channel1-eq-high-freq-r;
#X obj 222 54 r \$0-channel1-eq-high-gain-s;
#X obj 222 127 s \$0-channel1-eq-high-gain-r;
#X obj 12 161 r \$0-channel1-eq-mid-freq-s;
#X obj 12 234 s \$0-channel1-eq-mid-freq-r;
#X obj 214 161 r \$0-channel1-eq-mid-gain-s;
#X obj 214 234 s \$0-channel1-eq-mid-gain-r;
#X obj 22 266 r \$0-channel1-eq-low-freq-s;
#X obj 224 266 r \$0-channel1-eq-low-gain-s;
#X obj 22 339 s \$0-channel1-eq-low-freq-r;
#X obj 224 339 s \$0-channel1-eq-low-gain-r;
#X connect 0 0 17 0;
#X connect 1 0 19 0;
#X connect 2 0 1 0;
#X connect 3 0 0 0;
#X connect 4 0 13 0;
#X connect 5 0 15 0;
#X connect 6 0 5 0;
#X connect 7 0 4 0;
#X connect 8 0 22 0;
#X connect 9 0 23 0;
#X connect 10 0 9 0;
#X connect 11 0 8 0;
#X connect 12 0 7 0;
#X connect 14 0 6 0;
#X connect 16 0 3 0;
#X connect 18 0 2 0;
#X connect 20 0 11 0;
#X connect 21 0 10 0;
#X restore 105 534 pd parameter-nudging-system;
#X obj 437 560 hsl 84 15 0 127 0 1 \$0-channel1-eq-low-freq-s \$0-channel1-eq-low-freq-r
LOW-FREQ:100 0 7 0 10 -14016 -1 -1 4150 1;
#X obj 437 530 hsl 84 15 0 127 0 1 \$0-channel1-eq-mid-freq-s \$0-channel1-eq-mid-freq-r
MID-FREQ:2000 0 7 0 10 -245635 -1 -1 4150 1;
#N canvas 531 26 749 752 external-messages 0;
#X floatatom 44 706 5 0 0 0 - - -;
#X obj 43 328 spigot;
#X obj 76 288 tgl 15 0 empty empty empty 17 7 0 10 -262144 -1 -1 0
1;
#X obj 112 272 ==;
#X obj 127 248 f \$1;
#X obj 127 224 loadbang;
#X msg 43 202 \$1 \$2;
#X msg 43 156 symbol \$1;
#X obj 43 180 pack s f;
#X obj 44 685 f;
#X obj 44 633 t b f;
#X obj 44 656 spigot;
#X obj 43 62 unpack s f f;
#X symbolatom 43 94 10 0 0 0 - - -;
#X obj 76 308 t f f;
#X obj 103 332 s \$0-msg-spigot;
#X obj 92 640 r \$0-msg-spigot;
#X floatatom 51 574 5 0 0 0 - - -;
#X obj 51 553 f;
#X obj 51 501 t b f;
#X obj 51 524 spigot;
#X obj 99 508 r \$0-msg-spigot;
#X floatatom 243 709 5 0 0 0 - - -;
#X obj 243 688 f;
#X obj 243 636 t b f;
#X obj 243 659 spigot;
#X obj 291 643 r \$0-msg-spigot;
#X floatatom 253 557 5 0 0 0 - - -;
#X obj 253 536 f;
#X obj 253 484 t b f;
#X obj 253 507 spigot;
#X obj 301 491 r \$0-msg-spigot;
#X floatatom 517 674 5 0 0 0 - - -;
#X obj 517 653 f;
#X obj 517 601 t b f;
#X obj 517 624 spigot;
#X obj 565 608 r \$0-msg-spigot;
#X obj 43 13 r channel-eq;
#X obj 42 380 route HIGH-FREQ HIGH-GAIN MID-FREQ MID-GAIN LOW-FREQ
LOW-GAIN;
#X floatatom 500 516 5 0 0 0 - - -;
#X obj 500 495 f;
#X obj 500 443 t b f;
#X obj 500 466 spigot;
#X obj 548 450 r \$0-msg-spigot;
#X obj 51 594 s \$0-channel1-eq-high-gain-r;
#X obj 44 726 s \$0-channel1-eq-high-freq-r;
#X obj 243 729 s \$0-channel1-eq-mid-freq-r;
#X obj 253 577 s \$0-channel1-eq-mid-gain-r;
#X obj 517 694 s \$0-channel1-eq-low-freq-r;
#X obj 500 536 s \$0-channel1-eq-low-gain-r;
#X connect 0 0 45 0;
#X connect 1 0 38 0;
#X connect 2 0 14 0;
#X connect 3 0 2 0;
#X connect 4 0 3 1;
#X connect 5 0 4 0;
#X connect 6 0 1 0;
#X connect 7 0 8 0;
#X connect 8 0 6 0;
#X connect 9 0 0 0;
#X connect 10 0 11 0;
#X connect 10 1 9 1;
#X connect 11 0 9 0;
#X connect 12 0 13 0;
#X connect 12 1 8 1;
#X connect 12 2 3 0;
#X connect 13 0 7 0;
#X connect 14 0 1 1;
#X connect 14 1 15 0;
#X connect 16 0 11 1;
#X connect 17 0 44 0;
#X connect 18 0 17 0;
#X connect 19 0 20 0;
#X connect 19 1 18 1;
#X connect 20 0 18 0;
#X connect 21 0 20 1;
#X connect 22 0 46 0;
#X connect 23 0 22 0;
#X connect 24 0 25 0;
#X connect 24 1 23 1;
#X connect 25 0 23 0;
#X connect 26 0 25 1;
#X connect 27 0 47 0;
#X connect 28 0 27 0;
#X connect 29 0 30 0;
#X connect 29 1 28 1;
#X connect 30 0 28 0;
#X connect 31 0 30 1;
#X connect 32 0 48 0;
#X connect 33 0 32 0;
#X connect 34 0 35 0;
#X connect 34 1 33 1;
#X connect 35 0 33 0;
#X connect 36 0 35 1;
#X connect 37 0 12 0;
#X connect 38 0 10 0;
#X connect 38 1 19 0;
#X connect 38 2 24 0;
#X connect 38 3 29 0;
#X connect 38 4 34 0;
#X connect 38 5 41 0;
#X connect 39 0 49 0;
#X connect 40 0 39 0;
#X connect 41 0 42 0;
#X connect 41 1 40 1;
#X connect 42 0 40 0;
#X connect 43 0 42 1;
#X restore 105 663 pd external-messages;
#X text 103 516 EQ Ch_1;
#X obj 228 444 outlet~ Ch1_L;
#X obj 396 444 outlet~ Ch1_R;
#X obj 523 411 loadbang;
#X msg 523 434 63.5;
#X obj 242 241 inlet~;
#X msg 370 223 \$1 20;
#X obj 370 246 line~;
#X obj 370 203 tgl 15 0 empty adc_Ch1 empty 17 7 0 10 -262144 -1 -1
2 2;
#X obj 628 484 vu 15 120 empty empty -1 -8 0 10 -66577 -1 0 0;
#X obj 685 477 env~;
#X obj 685 500 - 100;
#X obj 696 426 *~;
#X obj 576 264 *~;
#X obj 576 364 clip~ -1 1;
#X obj 576 339 *~ 1;
#N canvas 1280 22 1920 1036 mid 0;
#X obj 126 21 inlet~;
#X obj 126 544 outlet~;
#X obj 142 75 / 127;
#X obj 142 119 + 150;
#X floatatom 142 141 5 0 0 0 - - -;
#X obj 142 97 * 3350;
#X obj 142 214 pack 0 50;
#X obj 142 240 line~;
#X obj 126 493 *~;
#X floatatom 409 104 5 0 0 0 - - -;
#X floatatom 466 106 5 0 0 0 - - -;
#X obj 409 53 moses 63.5;
#X obj 466 84 / 63.5;
#X obj 409 82 / 63.5;
#X obj 466 125 * 10;
#X floatatom 466 147 5 0 0 0 - - -;
#X obj 466 166 - 10;
#X floatatom 466 188 5 0 0 0 - - -;
#X obj 466 289 pack 0 50;
#X obj 466 220 spigot;
#X obj 409 14 t f f;
#X obj 534 31 > 63.5;
#X floatatom 534 57 5 0 0 0 - - -;
#X obj 534 76 t f f;
#X obj 408 253 spigot;
#X obj 561 236 == 0;
#X obj 627 13 / 127;
#X obj 627 35 * 20;
#X obj 627 57 - 10;
#X obj 627 79 i;
#X floatatom 627 101 5 0 0 0 - - -;
#X obj 466 476 line~;
#X obj 227 177 i;
#X obj 142 160 t f f;
#X msg 227 199 label MID-FREQ:\$1;
#X obj 126 265 vcf~ 3;
#X obj 126 287 vcf~ 3;
#X obj 126 311 vcf~ 3;
#X obj 126 333 vcf~ 3;
#X msg 627 124 label MID-GAIN:\$1;
#X obj 142 53 r \$0-channel2-eq-mid-freq-s;
#X obj 227 221 s \$0-channel2-eq-mid-freq-r;
#X obj 409 -8 r \$0-channel2-eq-mid-gain-s;
#X obj 627 -9 r \$0-channel2-eq-mid-gain-s;
#X obj 627 146 s \$0-channel2-eq-mid-gain-r;
#X connect 0 0 35 0;
#X connect 2 0 5 0;
#X connect 3 0 4 0;
#X connect 4 0 33 0;
#X connect 5 0 3 0;
#X connect 6 0 7 0;
#X connect 7 0 35 1;
#X connect 7 0 36 1;
#X connect 7 0 37 1;
#X connect 7 0 38 1;
#X connect 8 0 1 0;
#X connect 9 0 24 0;
#X connect 10 0 14 0;
#X connect 11 0 13 0;
#X connect 11 1 12 0;
#X connect 12 0 10 0;
#X connect 13 0 9 0;
#X connect 14 0 15 0;
#X connect 15 0 16 0;
#X connect 16 0 17 0;
#X connect 17 0 19 0;
#X connect 18 0 31 0;
#X connect 19 0 18 0;
#X connect 20 0 11 0;
#X connect 20 1 21 0;
#X connect 21 0 22 0;
#X connect 22 0 23 0;
#X connect 23 0 19 1;
#X connect 23 1 25 0;
#X connect 24 0 18 0;
#X connect 25 0 24 1;
#X connect 26 0 27 0;
#X connect 27 0 28 0;
#X connect 28 0 29 0;
#X connect 29 0 30 0;
#X connect 30 0 39 0;
#X connect 31 0 8 1;
#X connect 32 0 34 0;
#X connect 33 0 6 0;
#X connect 33 1 32 0;
#X connect 34 0 41 0;
#X connect 35 0 36 0;
#X connect 36 0 37 0;
#X connect 37 0 38 0;
#X connect 38 0 8 0;
#X connect 39 0 44 0;
#X connect 40 0 2 0;
#X connect 42 0 20 0;
#X connect 43 0 26 0;
#X restore 576 296 pd mid;
#N canvas 1280 22 1920 1036 high 0;
#X obj 126 21 inlet~;
#X obj 126 544 outlet~;
#X obj 142 75 / 127;
#X floatatom 142 141 5 0 0 0 - - -;
#X obj 142 214 pack 0 50;
#X obj 142 240 line~;
#X obj 126 493 *~;
#X floatatom 409 104 5 0 0 0 - - -;
#X floatatom 466 106 5 0 0 0 - - -;
#X obj 409 53 moses 63.5;
#X obj 466 84 / 63.5;
#X obj 409 82 / 63.5;
#X obj 466 125 * 10;
#X floatatom 466 147 5 0 0 0 - - -;
#X obj 466 166 - 10;
#X floatatom 466 188 5 0 0 0 - - -;
#X obj 466 289 pack 0 50;
#X obj 466 220 spigot;
#X obj 409 14 t f f;
#X obj 534 31 > 63.5;
#X floatatom 534 57 5 0 0 0 - - -;
#X obj 534 76 t f f;
#X obj 408 253 spigot;
#X obj 561 236 == 0;
#X obj 626 13 / 127;
#X obj 626 35 * 20;
#X obj 626 57 - 10;
#X obj 626 79 i;
#X floatatom 626 101 5 0 0 0 - - -;
#X obj 466 476 line~;
#X obj 227 177 i;
#X obj 142 160 t f f;
#X obj 126 265 vcf~ 3;
#X obj 126 287 vcf~ 3;
#X obj 126 311 vcf~ 3;
#X obj 126 333 vcf~ 3;
#X obj 142 119 + 3350;
#X msg 227 199 label HIGH-FREQ:\$1;
#X msg 626 124 label HIGH-GAIN:\$1;
#X obj 142 97 * 6649;
#X obj 142 53 r \$0-channel2-eq-high-freq-s;
#X obj 227 221 s \$0-channel2-eq-high-freq-r;
#X obj 409 -8 r \$0-channel2-eq-high-gain-s;
#X obj 626 -9 r \$0-channel2-eq-high-gain-s;
#X obj 626 146 s \$0-channel2-eq-high-gain-r;
#X connect 0 0 32 0;
#X connect 2 0 39 0;
#X connect 3 0 31 0;
#X connect 4 0 5 0;
#X connect 5 0 32 1;
#X connect 5 0 33 1;
#X connect 5 0 34 1;
#X connect 5 0 35 1;
#X connect 6 0 1 0;
#X connect 7 0 22 0;
#X connect 8 0 12 0;
#X connect 9 0 11 0;
#X connect 9 1 10 0;
#X connect 10 0 8 0;
#X connect 11 0 7 0;
#X connect 12 0 13 0;
#X connect 13 0 14 0;
#X connect 14 0 15 0;
#X connect 15 0 17 0;
#X connect 16 0 29 0;
#X connect 17 0 16 0;
#X connect 18 0 9 0;
#X connect 18 1 19 0;
#X connect 19 0 20 0;
#X connect 20 0 21 0;
#X connect 21 0 17 1;
#X connect 21 1 23 0;
#X connect 22 0 16 0;
#X connect 23 0 22 1;
#X connect 24 0 25 0;
#X connect 25 0 26 0;
#X connect 26 0 27 0;
#X connect 27 0 28 0;
#X connect 28 0 38 0;
#X connect 29 0 6 1;
#X connect 30 0 37 0;
#X connect 31 0 4 0;
#X connect 31 1 30 0;
#X connect 32 0 33 0;
#X connect 33 0 34 0;
#X connect 34 0 35 0;
#X connect 35 0 6 0;
#X connect 36 0 3 0;
#X connect 37 0 41 0;
#X connect 38 0 44 0;
#X connect 39 0 36 0;
#X connect 40 0 2 0;
#X connect 42 0 18 0;
#X connect 43 0 24 0;
#X restore 626 296 pd high;
#N canvas 1280 22 1920 1036 low 0;
#X obj 126 21 inlet~;
#X obj 126 544 outlet~;
#X obj 142 75 / 127;
#X floatatom 142 141 5 0 0 0 - - -;
#X obj 142 214 pack 0 50;
#X obj 142 240 line~;
#X obj 126 493 *~;
#X floatatom 409 104 5 0 0 0 - - -;
#X floatatom 466 106 5 0 0 0 - - -;
#X obj 409 53 moses 63.5;
#X obj 466 84 / 63.5;
#X obj 409 82 / 63.5;
#X obj 466 125 * 10;
#X floatatom 466 147 5 0 0 0 - - -;
#X obj 466 166 - 10;
#X floatatom 466 188 5 0 0 0 - - -;
#X obj 466 289 pack 0 50;
#X obj 466 220 spigot;
#X obj 409 14 t f f;
#X obj 534 31 > 63.5;
#X floatatom 534 57 5 0 0 0 - - -;
#X obj 534 76 t f f;
#X obj 408 253 spigot;
#X obj 561 236 == 0;
#X obj 626 13 / 127;
#X obj 626 35 * 20;
#X obj 626 57 - 10;
#X obj 626 79 i;
#X floatatom 626 101 5 0 0 0 - - -;
#X obj 466 476 line~;
#X obj 227 177 i;
#X obj 142 160 t f f;
#X obj 126 265 vcf~ 3;
#X obj 126 287 vcf~ 3;
#X obj 126 311 vcf~ 3;
#X obj 126 333 vcf~ 3;
#X msg 227 199 label LOW-FREQ:\$1;
#X msg 626 124 label LOW-GAIN:\$1;
#X obj 142 97 * 120;
#X obj 142 119 + 30;
#X obj 142 53 r \$0-channel2-eq-low-freq-s;
#X obj 227 221 s \$0-channel2-eq-low-freq-r;
#X obj 409 -8 r \$0-channel2-eq-low-gain-s;
#X obj 626 -9 r \$0-channel2-eq-low-gain-s;
#X obj 626 146 s \$0-channel2-eq-low-gain-r;
#X connect 0 0 32 0;
#X connect 2 0 38 0;
#X connect 3 0 31 0;
#X connect 4 0 5 0;
#X connect 5 0 32 1;
#X connect 5 0 33 1;
#X connect 5 0 34 1;
#X connect 5 0 35 1;
#X connect 6 0 1 0;
#X connect 7 0 22 0;
#X connect 8 0 12 0;
#X connect 9 0 11 0;
#X connect 9 1 10 0;
#X connect 10 0 8 0;
#X connect 11 0 7 0;
#X connect 12 0 13 0;
#X connect 13 0 14 0;
#X connect 14 0 15 0;
#X connect 15 0 17 0;
#X connect 16 0 29 0;
#X connect 17 0 16 0;
#X connect 18 0 9 0;
#X connect 18 1 19 0;
#X connect 19 0 20 0;
#X connect 20 0 21 0;
#X connect 21 0 17 1;
#X connect 21 1 23 0;
#X connect 22 0 16 0;
#X connect 23 0 22 1;
#X connect 24 0 25 0;
#X connect 25 0 26 0;
#X connect 26 0 27 0;
#X connect 27 0 28 0;
#X connect 28 0 37 0;
#X connect 29 0 6 1;
#X connect 30 0 36 0;
#X connect 31 0 4 0;
#X connect 31 1 30 0;
#X connect 32 0 33 0;
#X connect 33 0 34 0;
#X connect 34 0 35 0;
#X connect 35 0 6 0;
#X connect 36 0 41 0;
#X connect 37 0 44 0;
#X connect 38 0 39 0;
#X connect 39 0 3 0;
#X connect 40 0 2 0;
#X connect 42 0 18 0;
#X connect 43 0 24 0;
#X restore 528 296 pd low;
#X obj 534 545 hsl 84 15 0 127 0 1 \$0-channel2-eq-mid-gain-s \$0-channel2-eq-mid-gain-r
MID-GAIN:0 0 7 0 10 -212356 -1 -1 4150 1;
#X obj 534 575 hsl 84 15 0 127 0 1 \$0-channel2-eq-low-gain-s \$0-channel2-eq-low-gain-r
LOW-GAIN:0 0 7 0 10 -9136 -1 -1 4150 1;
#X obj 534 500 hsl 84 15 0 127 0 1 \$0-channel2-eq-high-freq-s \$0-channel2-eq-high-freq-r
HIGH-FREQ:6674 0 7 0 10 -254621 -1 -1 4150 1;
#X obj 534 515 hsl 84 15 0 127 0 1 \$0-channel2-eq-high-gain-s \$0-channel2-eq-high-gain-r
HIGH-GAIN:0 0 7 0 10 -204820 -1 -1 4150 1;
#N canvas 1280 22 1920 1036 state-saving-multiple-instances 0;
#X obj 138 28 loadbang;
#X obj 138 61 t b b;
#X obj 42 691 textfile;
#X obj 43 357 f;
#X obj 56 580 f;
#X obj -19 403 t b b b;
#X msg 119 580 clear;
#X obj 230 207 outlet;
#X text 250 242 INSTANCE NUMBER;
#X obj 165 152 f \$1;
#X obj 165 188 t f f f;
#X obj -19 378 bng 15 250 50 0 empty empty empty 17 7 0 10 -262144
-1 -1;
#X obj -19 274 r SAVE-S;
#X msg 55 651 write statesave/\$1-channel-eq-ss.txt;
#X obj 43 400 pack f f f f f f;
#X msg 43 438 set \$1 \$2 \$3 \$4 \$5 \$6;
#X obj 47 241 r \$0-channel2-eq-high-freq-s;
#X obj 61 275 r \$0-channel2-eq-high-gain-s;
#X obj 80 299 r \$0-channel2-eq-mid-freq-s;
#X obj 98 324 r \$0-channel2-eq-mid-gain-s;
#X obj 117 348 r \$0-channel2-eq-low-freq-s;
#X obj 136 373 r \$0-channel2-eq-low-gain-s;
#X connect 0 0 1 0;
#X connect 1 1 9 0;
#X connect 3 0 14 0;
#X connect 4 0 13 0;
#X connect 5 0 4 0;
#X connect 5 1 3 0;
#X connect 5 2 6 0;
#X connect 6 0 2 0;
#X connect 9 0 10 0;
#X connect 10 0 4 1;
#X connect 10 2 7 0;
#X connect 11 0 5 0;
#X connect 12 0 11 0;
#X connect 13 0 2 0;
#X connect 14 0 15 0;
#X connect 15 0 2 0;
#X connect 16 0 3 1;
#X connect 17 0 14 1;
#X connect 18 0 14 2;
#X connect 19 0 14 3;
#X connect 20 0 14 4;
#X connect 21 0 14 5;
#X restore 671 590 pd state-saving-multiple-instances;
#X obj 671 656 s \$0-instance-num;
#X obj 671 612 makefilename %d;
#X msg 671 634 label \$1;
#N canvas 1280 22 1920 1036 state-saving-via-preset-manager-module
0;
#X obj 496 252 textfile;
#X msg 774 235 rewind;
#X msg 731 235 bang;
#X obj 183 690 textfile;
#X obj 731 196 t b b;
#X obj 184 356 f;
#X obj 197 579 f;
#X obj 130 474 t b b b;
#X msg 313 621 clear;
#X obj 184 180 delay 5;
#X obj 130 529 delay 10;
#X msg 130 314 bang;
#X obj 130 155 r STORE-S!;
#X obj 496 153 f;
#X obj 469 110 t b b;
#X obj 484 74 t b f;
#X obj 541 171 f \$1;
#X obj 496 198 pack f f;
#X obj 541 121 loadbang;
#X obj 197 609 pack f f;
#X obj 242 562 loadbang;
#X obj 242 584 f \$1;
#X obj 484 51 r preset-manager-scan;
#X obj 212 540 r preset-manager-store-slot;
#X msg 196 650 write statesave/\$1-\$2-channel-eq-ss.txt;
#X msg 496 227 read statesave/\$1-\$2-channel-eq-ss.txt;
#X obj 184 423 pack f f f f f f;
#X msg 183 490 set \$1 \$2 \$3 \$4 \$5 \$6;
#X obj 496 274 unpack f f f f f f;
#N canvas 0 22 1069 747 morph-frequencies 0;
#X obj 176 94 inlet;
#X obj 176 236 pack f f;
#X obj 176 261 line;
#X obj 209 117 r preset-manager-morph-s;
#X msg 72 244 stop;
#X obj 72 214 r STOP-MORPH!;
#X obj 398 102 r frequencies-s;
#X obj 209 206 spigot;
#X obj 398 137 t f f;
#X obj 455 154 == 0;
#X obj 221 176 f;
#X floatatom 455 222 5 0 0 0 - - -;
#X obj 398 159 t b f;
#X floatatom 425 192 5 0 0 0 - - -;
#X obj 209 139 t f f;
#X obj 176 283 outlet;
#X connect 0 0 1 0;
#X connect 1 0 2 0;
#X connect 2 0 15 0;
#X connect 3 0 14 0;
#X connect 4 0 2 0;
#X connect 5 0 4 0;
#X connect 6 0 8 0;
#X connect 7 0 1 1;
#X connect 8 0 12 0;
#X connect 8 1 9 0;
#X connect 9 0 11 0;
#X connect 10 0 7 0;
#X connect 11 0 1 1;
#X connect 12 0 10 0;
#X connect 12 1 13 0;
#X connect 13 0 7 1;
#X connect 14 0 7 0;
#X connect 14 1 10 1;
#X restore 496 699 pd morph-frequencies;
#N canvas 0 22 1069 747 morph-attenuators 0;
#X obj 176 94 inlet;
#X obj 176 236 pack f f;
#X obj 176 261 line;
#X obj 209 117 r preset-manager-morph-s;
#X msg 72 244 stop;
#X obj 72 214 r STOP-MORPH!;
#X obj 209 206 spigot;
#X obj 398 137 t f f;
#X obj 455 154 == 0;
#X obj 221 176 f;
#X floatatom 455 222 5 0 0 0 - - -;
#X obj 398 159 t b f;
#X floatatom 425 192 5 0 0 0 - - -;
#X obj 209 139 t f f;
#X obj 398 102 r attenuators-s;
#X obj 176 288 outlet;
#X connect 0 0 1 0;
#X connect 1 0 2 0;
#X connect 2 0 15 0;
#X connect 3 0 13 0;
#X connect 4 0 2 0;
#X connect 5 0 4 0;
#X connect 6 0 1 1;
#X connect 7 0 11 0;
#X connect 7 1 8 0;
#X connect 8 0 10 0;
#X connect 9 0 6 0;
#X connect 10 0 1 1;
#X connect 11 0 9 0;
#X connect 11 1 12 0;
#X connect 12 0 6 1;
#X connect 13 0 6 0;
#X connect 13 1 9 1;
#X connect 14 0 7 0;
#X restore 517 648 pd morph-attenuators;
#N canvas 0 22 1069 747 morph-frequencies 0;
#X obj 176 94 inlet;
#X obj 176 236 pack f f;
#X obj 176 261 line;
#X obj 209 117 r preset-manager-morph-s;
#X msg 72 244 stop;
#X obj 72 214 r STOP-MORPH!;
#X obj 398 102 r frequencies-s;
#X obj 209 206 spigot;
#X obj 398 137 t f f;
#X obj 455 154 == 0;
#X obj 221 176 f;
#X floatatom 455 222 5 0 0 0 - - -;
#X obj 398 159 t b f;
#X floatatom 425 192 5 0 0 0 - - -;
#X obj 209 139 t f f;
#X obj 176 283 outlet;
#X connect 0 0 1 0;
#X connect 1 0 2 0;
#X connect 2 0 15 0;
#X connect 3 0 14 0;
#X connect 4 0 2 0;
#X connect 5 0 4 0;
#X connect 6 0 8 0;
#X connect 7 0 1 1;
#X connect 8 0 12 0;
#X connect 8 1 9 0;
#X connect 9 0 11 0;
#X connect 10 0 7 0;
#X connect 11 0 1 1;
#X connect 12 0 10 0;
#X connect 12 1 13 0;
#X connect 13 0 7 1;
#X connect 14 0 7 0;
#X connect 14 1 10 1;
#X restore 536 586 pd morph-frequencies;
#N canvas 0 22 1069 747 morph-attenuators 0;
#X obj 176 94 inlet;
#X obj 176 236 pack f f;
#X obj 176 261 line;
#X obj 209 117 r preset-manager-morph-s;
#X msg 72 244 stop;
#X obj 72 214 r STOP-MORPH!;
#X obj 209 206 spigot;
#X obj 398 137 t f f;
#X obj 455 154 == 0;
#X obj 221 176 f;
#X floatatom 455 222 5 0 0 0 - - -;
#X obj 398 159 t b f;
#X floatatom 425 192 5 0 0 0 - - -;
#X obj 209 139 t f f;
#X obj 398 102 r attenuators-s;
#X obj 176 288 outlet;
#X connect 0 0 1 0;
#X connect 1 0 2 0;
#X connect 2 0 15 0;
#X connect 3 0 13 0;
#X connect 4 0 2 0;
#X connect 5 0 4 0;
#X connect 6 0 1 1;
#X connect 7 0 11 0;
#X connect 7 1 8 0;
#X connect 8 0 10 0;
#X connect 9 0 6 0;
#X connect 10 0 1 1;
#X connect 11 0 9 0;
#X connect 11 1 12 0;
#X connect 12 0 6 1;
#X connect 13 0 6 0;
#X connect 13 1 9 1;
#X connect 14 0 7 0;
#X restore 557 535 pd morph-attenuators;
#N canvas 0 22 1069 747 morph-frequencies 0;
#X obj 176 94 inlet;
#X obj 176 236 pack f f;
#X obj 176 261 line;
#X obj 209 117 r preset-manager-morph-s;
#X msg 72 244 stop;
#X obj 72 214 r STOP-MORPH!;
#X obj 398 102 r frequencies-s;
#X obj 209 206 spigot;
#X obj 398 137 t f f;
#X obj 455 154 == 0;
#X obj 221 176 f;
#X floatatom 455 222 5 0 0 0 - - -;
#X obj 398 159 t b f;
#X floatatom 425 192 5 0 0 0 - - -;
#X obj 209 139 t f f;
#X obj 176 283 outlet;
#X connect 0 0 1 0;
#X connect 1 0 2 0;
#X connect 2 0 15 0;
#X connect 3 0 14 0;
#X connect 4 0 2 0;
#X connect 5 0 4 0;
#X connect 6 0 8 0;
#X connect 7 0 1 1;
#X connect 8 0 12 0;
#X connect 8 1 9 0;
#X connect 9 0 11 0;
#X connect 10 0 7 0;
#X connect 11 0 1 1;
#X connect 12 0 10 0;
#X connect 12 1 13 0;
#X connect 13 0 7 1;
#X connect 14 0 7 0;
#X connect 14 1 10 1;
#X restore 582 472 pd morph-frequencies;
#N canvas 0 22 1069 747 morph-attenuators 0;
#X obj 176 94 inlet;
#X obj 176 236 pack f f;
#X obj 176 261 line;
#X obj 209 117 r preset-manager-morph-s;
#X msg 72 244 stop;
#X obj 72 214 r STOP-MORPH!;
#X obj 209 206 spigot;
#X obj 398 137 t f f;
#X obj 455 154 == 0;
#X obj 221 176 f;
#X floatatom 455 222 5 0 0 0 - - -;
#X obj 398 159 t b f;
#X floatatom 425 192 5 0 0 0 - - -;
#X obj 209 139 t f f;
#X obj 398 102 r attenuators-s;
#X obj 176 288 outlet;
#X connect 0 0 1 0;
#X connect 1 0 2 0;
#X connect 2 0 15 0;
#X connect 3 0 13 0;
#X connect 4 0 2 0;
#X connect 5 0 4 0;
#X connect 6 0 1 1;
#X connect 7 0 11 0;
#X connect 7 1 8 0;
#X connect 8 0 10 0;
#X connect 9 0 6 0;
#X connect 10 0 1 1;
#X connect 11 0 9 0;
#X connect 11 1 12 0;
#X connect 12 0 6 1;
#X connect 13 0 6 0;
#X connect 13 1 9 1;
#X connect 14 0 7 0;
#X restore 603 421 pd morph-attenuators;
#X obj 199 258 r \$0-channel2-eq-high-freq-s;
#X obj 207 280 r \$0-channel2-eq-high-gain-s;
#X obj 230 302 r \$0-channel2-eq-mid-freq-s;
#X obj 253 324 r \$0-channel2-eq-mid-gain-s;
#X obj 268 349 r \$0-channel2-eq-low-freq-s;
#X obj 603 447 s \$0-channel2-eq-low-gain-r;
#X obj 582 498 s \$0-channel2-eq-low-freq-r;
#X obj 557 561 s \$0-channel2-eq-mid-gain-r;
#X obj 536 612 s \$0-channel2-eq-mid-freq-r;
#X obj 517 674 s \$0-channel2-eq-high-gain-r;
#X obj 496 725 s \$0-channel2-eq-high-freq-r;
#X obj 291 371 r \$0-channel2-eq-low-gain-s;
#X connect 0 0 28 0;
#X connect 1 0 0 0;
#X connect 2 0 0 0;
#X connect 4 0 2 0;
#X connect 4 1 1 0;
#X connect 5 0 26 0;
#X connect 6 0 19 0;
#X connect 7 0 10 0;
#X connect 7 1 9 0;
#X connect 7 2 8 0;
#X connect 8 0 3 0;
#X connect 9 0 5 0;
#X connect 10 0 6 0;
#X connect 11 0 7 0;
#X connect 12 0 11 0;
#X connect 13 0 17 0;
#X connect 14 0 4 0;
#X connect 14 1 13 0;
#X connect 15 0 14 0;
#X connect 15 1 13 1;
#X connect 16 0 17 1;
#X connect 17 0 25 0;
#X connect 18 0 16 0;
#X connect 19 0 24 0;
#X connect 20 0 21 0;
#X connect 21 0 19 1;
#X connect 22 0 15 0;
#X connect 23 0 6 1;
#X connect 24 0 3 0;
#X connect 25 0 0 0;
#X connect 26 0 27 0;
#X connect 27 0 3 0;
#X connect 28 0 29 0;
#X connect 28 1 30 0;
#X connect 28 2 31 0;
#X connect 28 3 32 0;
#X connect 28 4 33 0;
#X connect 28 5 34 0;
#X connect 29 0 45 0;
#X connect 30 0 44 0;
#X connect 31 0 43 0;
#X connect 32 0 42 0;
#X connect 33 0 41 0;
#X connect 34 0 40 0;
#X connect 35 0 5 1;
#X connect 36 0 26 1;
#X connect 37 0 26 2;
#X connect 38 0 26 3;
#X connect 39 0 26 4;
#X connect 46 0 26 5;
#X restore 671 569 pd state-saving-via-preset-manager-module;
#N canvas 1280 22 1920 1036 parameter-nudging-system 0;
#X obj 12 206 clip 0 127;
#X obj 214 208 clip 0 127;
#N canvas 0 22 484 497 nudge-attenuators 0;
#X obj 124 234 random;
#X obj 232 335 f;
#X obj 232 368 +;
#X obj 257 166 random 2;
#X obj 124 275 t f f;
#X obj 124 351 t b f;
#X obj 124 297 *;
#X obj 257 188 sel 0 1;
#X msg 257 280 -1;
#X msg 335 280 1;
#X obj 124 149 t b b b;
#X obj 124 71 r NUDGE!;
#X obj 157 193 r NUDGE-RANGE;
#X obj 247 308 inlet;
#X obj 232 397 outlet;
#X obj 124 93 spigot;
#X obj 201 76 r attenuators2-s;
#X connect 0 0 4 0;
#X connect 1 0 2 0;
#X connect 2 0 14 0;
#X connect 3 0 7 0;
#X connect 4 0 6 0;
#X connect 5 0 2 0;
#X connect 5 1 2 1;
#X connect 6 0 5 0;
#X connect 7 0 8 0;
#X connect 7 1 9 0;
#X connect 8 0 6 1;
#X connect 9 0 6 1;
#X connect 10 0 0 0;
#X connect 10 1 1 0;
#X connect 10 2 3 0;
#X connect 11 0 15 0;
#X connect 12 0 0 1;
#X connect 13 0 1 1;
#X connect 15 0 10 0;
#X connect 16 0 15 1;
#X restore 214 184 pd nudge-attenuators;
#N canvas 0 22 484 497 nudge-frequencies 0;
#X obj 124 234 random;
#X obj 232 335 f;
#X obj 232 368 +;
#X obj 257 166 random 2;
#X obj 124 275 t f f;
#X obj 124 351 t b f;
#X obj 124 297 *;
#X obj 257 188 sel 0 1;
#X msg 257 280 -1;
#X msg 335 280 1;
#X obj 124 149 t b b b;
#X obj 124 74 r NUDGE!;
#X obj 157 193 r NUDGE-RANGE;
#X obj 247 308 inlet;
#X obj 232 397 outlet;
#X obj 124 96 spigot;
#X obj 185 79 r frequencies2-s;
#X connect 0 0 4 0;
#X connect 1 0 2 0;
#X connect 2 0 14 0;
#X connect 3 0 7 0;
#X connect 4 0 6 0;
#X connect 5 0 2 0;
#X connect 5 1 2 1;
#X connect 6 0 5 0;
#X connect 7 0 8 0;
#X connect 7 1 9 0;
#X connect 8 0 6 1;
#X connect 9 0 6 1;
#X connect 10 0 0 0;
#X connect 10 1 1 0;
#X connect 10 2 3 0;
#X connect 11 0 15 0;
#X connect 12 0 0 1;
#X connect 13 0 1 1;
#X connect 15 0 10 0;
#X connect 16 0 15 1;
#X restore 12 183 pd nudge-frequencies;
#X obj 10 99 clip 0 127;
#X obj 222 101 clip 0 127;
#N canvas 0 22 484 497 nudge-attenuators 0;
#X obj 124 234 random;
#X obj 232 335 f;
#X obj 232 368 +;
#X obj 257 166 random 2;
#X obj 124 275 t f f;
#X obj 124 351 t b f;
#X obj 124 297 *;
#X obj 257 188 sel 0 1;
#X msg 257 280 -1;
#X msg 335 280 1;
#X obj 124 149 t b b b;
#X obj 124 71 r NUDGE!;
#X obj 157 193 r NUDGE-RANGE;
#X obj 247 308 inlet;
#X obj 232 397 outlet;
#X obj 124 93 spigot;
#X obj 201 76 r attenuators2-s;
#X connect 0 0 4 0;
#X connect 1 0 2 0;
#X connect 2 0 14 0;
#X connect 3 0 7 0;
#X connect 4 0 6 0;
#X connect 5 0 2 0;
#X connect 5 1 2 1;
#X connect 6 0 5 0;
#X connect 7 0 8 0;
#X connect 7 1 9 0;
#X connect 8 0 6 1;
#X connect 9 0 6 1;
#X connect 10 0 0 0;
#X connect 10 1 1 0;
#X connect 10 2 3 0;
#X connect 11 0 15 0;
#X connect 12 0 0 1;
#X connect 13 0 1 1;
#X connect 15 0 10 0;
#X connect 16 0 15 1;
#X restore 222 77 pd nudge-attenuators;
#N canvas 0 22 1113 497 nudge-frequencies 0;
#X obj 124 234 random;
#X obj 232 335 f;
#X obj 232 368 +;
#X obj 257 166 random 2;
#X obj 124 275 t f f;
#X obj 124 351 t b f;
#X obj 124 297 *;
#X obj 257 188 sel 0 1;
#X msg 257 280 -1;
#X msg 335 280 1;
#X obj 124 149 t b b b;
#X obj 124 74 r NUDGE!;
#X obj 157 193 r NUDGE-RANGE;
#X obj 247 308 inlet;
#X obj 232 397 outlet;
#X obj 124 96 spigot;
#X obj 185 79 r frequencies2-s;
#X connect 0 0 4 0;
#X connect 1 0 2 0;
#X connect 2 0 14 0;
#X connect 3 0 7 0;
#X connect 4 0 6 0;
#X connect 5 0 2 0;
#X connect 5 1 2 1;
#X connect 6 0 5 0;
#X connect 7 0 8 0;
#X connect 7 1 9 0;
#X connect 8 0 6 1;
#X connect 9 0 6 1;
#X connect 10 0 0 0;
#X connect 10 1 1 0;
#X connect 10 2 3 0;
#X connect 11 0 15 0;
#X connect 12 0 0 1;
#X connect 13 0 1 1;
#X connect 15 0 10 0;
#X connect 16 0 15 1;
#X restore 10 76 pd nudge-frequencies;
#X obj 22 311 clip 0 127;
#X obj 224 313 clip 0 127;
#N canvas 0 22 484 497 nudge-attenuators 0;
#X obj 124 234 random;
#X obj 232 335 f;
#X obj 232 368 +;
#X obj 257 166 random 2;
#X obj 124 275 t f f;
#X obj 124 351 t b f;
#X obj 124 297 *;
#X obj 257 188 sel 0 1;
#X msg 257 280 -1;
#X msg 335 280 1;
#X obj 124 149 t b b b;
#X obj 124 71 r NUDGE!;
#X obj 157 193 r NUDGE-RANGE;
#X obj 247 308 inlet;
#X obj 232 397 outlet;
#X obj 124 93 spigot;
#X obj 201 76 r attenuators2-s;
#X connect 0 0 4 0;
#X connect 1 0 2 0;
#X connect 2 0 14 0;
#X connect 3 0 7 0;
#X connect 4 0 6 0;
#X connect 5 0 2 0;
#X connect 5 1 2 1;
#X connect 6 0 5 0;
#X connect 7 0 8 0;
#X connect 7 1 9 0;
#X connect 8 0 6 1;
#X connect 9 0 6 1;
#X connect 10 0 0 0;
#X connect 10 1 1 0;
#X connect 10 2 3 0;
#X connect 11 0 15 0;
#X connect 12 0 0 1;
#X connect 13 0 1 1;
#X connect 15 0 10 0;
#X connect 16 0 15 1;
#X restore 224 289 pd nudge-attenuators;
#N canvas 0 22 484 497 nudge-frequencies 0;
#X obj 124 234 random;
#X obj 232 335 f;
#X obj 232 368 +;
#X obj 257 166 random 2;
#X obj 124 275 t f f;
#X obj 124 351 t b f;
#X obj 124 297 *;
#X obj 257 188 sel 0 1;
#X msg 257 280 -1;
#X msg 335 280 1;
#X obj 124 149 t b b b;
#X obj 124 74 r NUDGE!;
#X obj 157 193 r NUDGE-RANGE;
#X obj 247 308 inlet;
#X obj 232 397 outlet;
#X obj 124 96 spigot;
#X obj 185 79 r frequencies2-s;
#X connect 0 0 4 0;
#X connect 1 0 2 0;
#X connect 2 0 14 0;
#X connect 3 0 7 0;
#X connect 4 0 6 0;
#X connect 5 0 2 0;
#X connect 5 1 2 1;
#X connect 6 0 5 0;
#X connect 7 0 8 0;
#X connect 7 1 9 0;
#X connect 8 0 6 1;
#X connect 9 0 6 1;
#X connect 10 0 0 0;
#X connect 10 1 1 0;
#X connect 10 2 3 0;
#X connect 11 0 15 0;
#X connect 12 0 0 1;
#X connect 13 0 1 1;
#X connect 15 0 10 0;
#X connect 16 0 15 1;
#X restore 22 288 pd nudge-frequencies;
#X obj 10 54 r \$0-channel2-eq-high-freq-s;
#X obj 222 54 r \$0-channel2-eq-high-gain-s;
#X obj 10 127 s \$0-channel2-eq-high-freq-r;
#X obj 222 127 s \$0-channel2-eq-high-gain-r;
#X obj 214 161 r \$0-channel2-eq-mid-gain-s;
#X obj 12 161 r \$0-channel2-eq-mid-freq-s;
#X obj 12 234 s \$0-channel2-eq-mid-freq-r;
#X obj 214 234 s \$0-channel2-eq-mid-gain-r;
#X obj 224 266 r \$0-channel2-eq-low-gain-s;
#X obj 22 266 r \$0-channel2-eq-low-freq-s;
#X obj 22 339 s \$0-channel2-eq-low-freq-r;
#X obj 224 339 s \$0-channel2-eq-low-gain-r;
#X connect 0 0 18 0;
#X connect 1 0 19 0;
#X connect 2 0 1 0;
#X connect 3 0 0 0;
#X connect 4 0 14 0;
#X connect 5 0 15 0;
#X connect 6 0 5 0;
#X connect 7 0 4 0;
#X connect 8 0 22 0;
#X connect 9 0 23 0;
#X connect 10 0 9 0;
#X connect 11 0 8 0;
#X connect 12 0 7 0;
#X connect 13 0 6 0;
#X connect 16 0 2 0;
#X connect 17 0 3 0;
#X connect 20 0 10 0;
#X connect 21 0 11 0;
#X restore 671 548 pd parameter-nudging-system;
#X obj 534 560 hsl 84 15 0 127 0 1 \$0-channel2-eq-low-freq-s \$0-channel2-eq-low-freq-r
LOW-FREQ:90 0 7 0 10 -14016 -1 -1 4150 1;
#X obj 534 530 hsl 84 15 0 127 0 1 \$0-channel2-eq-mid-freq-s \$0-channel2-eq-mid-freq-r
MID-FREQ:1825 0 7 0 10 -245635 -1 -1 4150 1;
#N canvas 1280 22 1920 1036 external-messages 0;
#X floatatom 44 706 5 0 0 0 - - -;
#X obj 43 328 spigot;
#X obj 76 288 tgl 15 0 empty empty empty 17 7 0 10 -262144 -1 -1 0
1;
#X obj 112 272 ==;
#X obj 127 248 f \$1;
#X obj 127 224 loadbang;
#X msg 43 202 \$1 \$2;
#X msg 43 156 symbol \$1;
#X obj 43 180 pack s f;
#X obj 44 685 f;
#X obj 44 633 t b f;
#X obj 44 656 spigot;
#X obj 43 62 unpack s f f;
#X symbolatom 43 94 10 0 0 0 - - -;
#X obj 76 308 t f f;
#X obj 103 332 s \$0-msg-spigot;
#X obj 92 640 r \$0-msg-spigot;
#X floatatom 51 574 5 0 0 0 - - -;
#X obj 51 553 f;
#X obj 51 501 t b f;
#X obj 51 524 spigot;
#X obj 99 508 r \$0-msg-spigot;
#X floatatom 243 709 5 0 0 0 - - -;
#X obj 243 688 f;
#X obj 243 636 t b f;
#X obj 243 659 spigot;
#X obj 291 643 r \$0-msg-spigot;
#X floatatom 253 557 5 0 0 0 - - -;
#X obj 253 536 f;
#X obj 253 484 t b f;
#X obj 253 507 spigot;
#X obj 301 491 r \$0-msg-spigot;
#X floatatom 517 674 5 0 0 0 - - -;
#X obj 517 653 f;
#X obj 517 601 t b f;
#X obj 517 624 spigot;
#X obj 565 608 r \$0-msg-spigot;
#X obj 43 13 r channel-eq;
#X obj 42 380 route HIGH-FREQ HIGH-GAIN MID-FREQ MID-GAIN LOW-FREQ
LOW-GAIN;
#X floatatom 500 516 5 0 0 0 - - -;
#X obj 500 495 f;
#X obj 500 443 t b f;
#X obj 500 466 spigot;
#X obj 548 450 r \$0-msg-spigot;
#X obj 51 594 s \$0-channel2-eq-high-gain-r;
#X obj 44 726 s \$0-channel2-eq-high-freq-r;
#X obj 243 729 s \$0-channel2-eq-mid-freq-r;
#X obj 253 577 s \$0-channel2-eq-mid-gain-r;
#X obj 500 536 s \$0-channel2-eq-low-gain-r;
#X obj 517 694 s \$0-channel2-eq-low-freq-r;
#X connect 0 0 45 0;
#X connect 1 0 38 0;
#X connect 2 0 14 0;
#X connect 3 0 2 0;
#X connect 4 0 3 1;
#X connect 5 0 4 0;
#X connect 6 0 1 0;
#X connect 7 0 8 0;
#X connect 8 0 6 0;
#X connect 9 0 0 0;
#X connect 10 0 11 0;
#X connect 10 1 9 1;
#X connect 11 0 9 0;
#X connect 12 0 13 0;
#X connect 12 1 8 1;
#X connect 12 2 3 0;
#X connect 13 0 7 0;
#X connect 14 0 1 1;
#X connect 14 1 15 0;
#X connect 16 0 11 1;
#X connect 17 0 44 0;
#X connect 18 0 17 0;
#X connect 19 0 20 0;
#X connect 19 1 18 1;
#X connect 20 0 18 0;
#X connect 21 0 20 1;
#X connect 22 0 46 0;
#X connect 23 0 22 0;
#X connect 24 0 25 0;
#X connect 24 1 23 1;
#X connect 25 0 23 0;
#X connect 26 0 25 1;
#X connect 27 0 47 0;
#X connect 28 0 27 0;
#X connect 29 0 30 0;
#X connect 29 1 28 1;
#X connect 30 0 28 0;
#X connect 31 0 30 1;
#X connect 32 0 49 0;
#X connect 33 0 32 0;
#X connect 34 0 35 0;
#X connect 34 1 33 1;
#X connect 35 0 33 0;
#X connect 36 0 35 1;
#X connect 37 0 12 0;
#X connect 38 0 10 0;
#X connect 38 1 19 0;
#X connect 38 2 24 0;
#X connect 38 3 29 0;
#X connect 38 4 34 0;
#X connect 38 5 41 0;
#X connect 39 0 48 0;
#X connect 40 0 39 0;
#X connect 41 0 42 0;
#X connect 41 1 40 1;
#X connect 42 0 40 0;
#X connect 43 0 42 1;
#X restore 671 677 pd external-messages;
#X obj 575 242 inlet~;
#X msg 715 223 \$1 20;
#X obj 715 246 line~;
#X obj 715 203 tgl 15 0 empty adc_Ch2 empty 17 7 0 10 -262144 -1 -1
30 30;
#X obj 588 444 outlet~ Ch2_L;
#X obj 745 444 outlet~ Ch2_R;
#X text 669 530 EQ Ch_2;
#X obj 369 178 loadbang;
#X obj 714 180 loadbang;
#X connect 1 0 2 0;
#X connect 2 0 0 0;
#X connect 3 0 1 0;
#X connect 3 0 24 0;
#X connect 3 0 25 0;
#X connect 4 0 9 0;
#X connect 4 0 7 0;
#X connect 4 0 8 0;
#X connect 5 0 3 0;
#X connect 6 0 5 0;
#X connect 7 0 6 0;
#X connect 8 0 6 0;
#X connect 9 0 6 0;
#X connect 14 0 16 0;
#X connect 16 0 17 0;
#X connect 17 0 15 0;
#X connect 26 0 27 0;
#X connect 27 0 12 0;
#X connect 27 0 13 0;
#X connect 27 0 21 0;
#X connect 27 0 10 0;
#X connect 27 0 20 0;
#X connect 27 0 11 0;
#X connect 27 0 44 0;
#X connect 27 0 45 0;
#X connect 27 0 53 0;
#X connect 27 0 42 0;
#X connect 27 0 52 0;
#X connect 27 0 43 0;
#X connect 28 0 4 0;
#X connect 29 0 30 0;
#X connect 30 0 4 1;
#X connect 30 0 3 1;
#X connect 31 0 29 0;
#X connect 33 0 34 0;
#X connect 34 0 32 0;
#X connect 35 0 33 0;
#X connect 35 0 59 0;
#X connect 35 0 60 0;
#X connect 36 0 41 0;
#X connect 36 0 39 0;
#X connect 36 0 40 0;
#X connect 37 0 35 0;
#X connect 38 0 37 0;
#X connect 39 0 38 0;
#X connect 40 0 38 0;
#X connect 41 0 38 0;
#X connect 46 0 48 0;
#X connect 48 0 49 0;
#X connect 49 0 47 0;
#X connect 55 0 36 0;
#X connect 56 0 57 0;
#X connect 57 0 35 1;
#X connect 57 0 36 1;
#X connect 58 0 56 0;
#X connect 62 0 31 0;
#X connect 63 0 58 0;
#X coords 0 -1 1 1 250 150 2 400 470;
