#N canvas -8 -8 1366 695 12;
#X obj 196 101 dbtorms;
#X obj 228 152 * 1000;
#X obj 197 46 hip~ 500;
#X obj 196 73 env~ 1000;
#X obj 228 189 - 0.3;
#X floatatom 248 217 5 0 0 0 - - -;
#X obj 335 114 cnv 15 194 73 empty empty empty 0 8 0 10 -162280 -66577
0;
#X obj 210 513 *~;
#X obj 228 449 vline~;
#X obj 228 254 clip 0 5;
#X obj 228 311 moses 1;
#X obj 228 350 bang;
#X obj 479 313 bang;
#X msg 479 345 1 1;
#X obj 433 273 moses 5;
#X obj 685 124 hsl 128 15 2 5 0 0 empty empty Through_Level -2 -8 0
10 -262144 -1 -1 8467 1;
#X floatatom 682 144 5 0 0 0 - - -;
#X obj 341 136 hsl 128 15 0 4.9 0 0 empty empty TRESHOLD 133 7 0 10
-191407 -1 -1 10886 1;
#X floatatom 304 293 5 0 0 0 - - -;
#X floatatom 251 282 5 0 0 0 - - -;
#X obj 680 64 loadbang;
#X obj 341 151 hsl 128 15 1 100 0 0 empty empty DECAY 133 7 0 10 -191407
-1 -1 12700 1;
#X obj 228 403 pack 0 f;
#X floatatom 338 166 4 0 0 1 - - -;
#X obj 473 116 tgl 15 0 empty empty Signal 17 7 0 10 -191407 -1 -1
0 1;
#X msg 326 369 0;
#X msg 522 346 1;
#N canvas 0 50 566 300 spigot~ 0;
#X obj 63 24 inlet~;
#X obj 95 75 == 0;
#X obj 174 75 == 1;
#X obj 64 174 *~;
#X obj 180 166 *~;
#X obj 179 246 outlet~;
#X obj 63 244 outlet~;
#X obj 233 23 inlet;
#X connect 0 0 3 0;
#X connect 0 0 4 0;
#X connect 1 0 3 1;
#X connect 2 0 4 1;
#X connect 3 0 6 0;
#X connect 4 0 5 0;
#X connect 7 0 1 0;
#X connect 7 0 2 0;
#X restore 143 131 pd spigot~;
#X obj 144 591 +~;
#X obj 338 116 tgl 15 0 empty empty ⌽_NOISE_GATE_RETURN 17 7 0 10
-191407 -1 -1 1 1;
#X msg 375 34 1;
#X obj 281 536 hsl 128 15 1000 10000 0 0 empty empty empty -2 -8 0
10 -262144 -1 -1 5644 1;
#X floatatom 278 556 5 0 0 0 - - -;
#X obj 210 551 lop~;
#X msg 279 504 5000;
#X obj 211 573 hip~ 50;
#X obj 357 211 inlet~;
#X msg 571 132 100;
#X obj 142 7 inlet~;
#X obj 145 650 outlet~;
#X msg 681 89 4;
#X msg 306 75 4.2;
#X connect 0 0 1 0;
#X connect 1 0 4 0;
#X connect 2 0 3 0;
#X connect 3 0 0 0;
#X connect 4 0 5 0;
#X connect 4 0 9 0;
#X connect 7 0 33 0;
#X connect 8 0 7 1;
#X connect 9 0 10 0;
#X connect 9 0 14 0;
#X connect 9 0 19 0;
#X connect 10 0 11 0;
#X connect 11 0 22 0;
#X connect 11 0 25 0;
#X connect 12 0 13 0;
#X connect 12 0 26 0;
#X connect 13 0 8 0;
#X connect 14 1 12 0;
#X connect 15 0 16 0;
#X connect 16 0 14 1;
#X connect 17 0 18 0;
#X connect 20 0 40 0;
#X connect 20 0 41 0;
#X connect 20 0 37 0;
#X connect 20 0 30 0;
#X connect 20 0 34 0;
#X connect 21 0 23 0;
#X connect 22 0 8 0;
#X connect 23 0 22 1;
#X connect 25 0 24 0;
#X connect 26 0 24 0;
#X connect 27 0 28 0;
#X connect 27 1 7 0;
#X connect 28 0 39 0;
#X connect 29 0 27 1;
#X connect 30 0 29 0;
#X connect 31 0 32 0;
#X connect 32 0 33 1;
#X connect 33 0 35 0;
#X connect 34 0 31 0;
#X connect 35 0 28 1;
#X connect 36 0 10 1;
#X connect 37 0 21 0;
#X connect 38 0 2 0;
#X connect 38 0 27 0;
#X connect 40 0 15 0;
#X connect 41 0 17 0;
#X coords 0 -1 1 1 200 80 1 332 110;
