#N canvas -8 -8 1366 695 10;
#X floatatom 424 237 0 0 0 0 - - -;
#X obj 487 508 *~;
#X obj 672 445 line~;
#X obj 672 419 pack 0 200;
#X obj 424 293 exp;
#X floatatom 424 319 6 0 0 0 - - -;
#X obj 424 409 /;
#X obj 551 339 * 0.001;
#X obj 781 515 line~;
#X obj 781 490 pack 0 200;
#X floatatom 781 439 0 0 0 0 - - -;
#X obj 487 534 +~;
#X obj 424 560 cos~;
#X obj 424 587 *~;
#X obj 424 616 +~;
#X obj 511 467 wrap~;
#X obj 718 510 *~;
#X obj 718 543 +~;
#X obj 655 570 cos~;
#X obj 655 597 *~;
#X obj 551 366 t b f;
#X floatatom 424 435 6 0 0 0 - - -;
#X obj 511 440 +~ 0.5;
#X obj 424 508 -~ 0.5;
#X obj 424 534 *~ 0.5;
#X obj 655 509 -~ 0.5;
#X obj 655 542 *~ 0.5;
#X obj 424 346 - 1;
#X obj 424 267 * 0.05776;
#X obj 424 372 * -1;
#X text 458 236 <-- transposition;
#X text 357 198 (halftones);
#X text 493 310 speed;
#X text 486 327 change;
#X text 686 261 <--window (msec);
#X text 459 402 tape head;
#X obj 424 466 phasor~;
#X obj 781 466 max 1.5;
#X obj 642 289 max 1;
#X text 460 415 rotation freq;
#X obj 324 176 * 48;
#X obj 324 198 - 24;
#X floatatom 642 311 5 0 0 0 - - -;
#X obj 324 220 i;
#X floatatom 324 242 5 0 0 0 - - -;
#X obj 641 239 loadbang;
#X msg 641 261 100;
#X obj 781 393 loadbang;
#X msg 781 415 0;
#X obj 324 70 r \$0-pitchshifter-pitch-/+-s;
#X obj 324 124 +;
#X obj 548 93 snapshot~;
#X obj 680 70 env~;
#X obj 680 92 change;
#X obj 680 114 t b;
#X obj 680 142 bng 15 250 50 0 empty empty empty 17 7 0 10 -262144
-1 -1;
#X obj 548 115 t b f;
#X floatatom 738 118 5 0 0 0 - - -;
#X obj 738 92 == 0;
#X obj 738 137 sel 1;
#X msg 738 159 0;
#X obj 657 -51 r \$0-pitchshifter-cv-att-s;
#X obj 548 31 *~;
#X obj 657 -29 / 127;
#X obj 657 -7 pack 0 50;
#X obj 657 15 line~;
#X obj 424 718 *~;
#X obj 87 480 t f f;
#X obj 152 508 pack 0 50;
#X obj 152 530 line~;
#X obj 68 708 *~;
#X msg 87 502 1 \$1;
#X obj 87 524 -;
#X obj 87 546 pack 0 50;
#X obj 87 670 line~;
#X obj 232 258 i;
#X msg 87 460 1, f 1;
#X obj 87 439 loadbang;
#N canvas 0 50 566 300 spigot~ 0;
#X obj 63 24 inlet~;
#X obj 119 38 == 0;
#X obj 174 75 == 1;
#X obj 64 174 *~;
#X obj 180 166 *~;
#X obj 179 246 outlet~;
#X obj 63 244 outlet~;
#X obj 233 23 inlet;
#X msg 174 99 \$1 20;
#X obj 174 118 line~;
#X msg 119 59 \$1 20;
#X obj 119 78 line~;
#X connect 0 0 3 0;
#X connect 0 0 4 0;
#X connect 1 0 10 0;
#X connect 2 0 8 0;
#X connect 3 0 6 0;
#X connect 4 0 5 0;
#X connect 7 0 1 0;
#X connect 7 0 2 0;
#X connect 8 0 9 0;
#X connect 9 0 4 1;
#X connect 10 0 11 0;
#X connect 11 0 3 1;
#X restore -157 132 pd spigot~;
#X obj -157 101 inlet~;
#X obj -157 728 +~;
#X obj -157 749 outlet~;
#X floatatom 1514 247 0 0 0 0 - - -;
#X obj 1577 518 *~;
#X obj 1762 455 line~;
#X obj 1762 429 pack 0 200;
#X obj 1514 303 exp;
#X floatatom 1514 329 6 0 0 0 - - -;
#X obj 1514 419 /;
#X obj 1641 349 * 0.001;
#X obj 1871 525 line~;
#X obj 1871 500 pack 0 200;
#X floatatom 1871 449 0 0 0 0 - - -;
#X obj 1577 544 +~;
#X obj 1514 570 cos~;
#X obj 1514 597 *~;
#X obj 1514 626 +~;
#X obj 1601 477 wrap~;
#X obj 1808 520 *~;
#X obj 1808 553 +~;
#X obj 1745 580 cos~;
#X obj 1745 607 *~;
#X obj 1641 376 t b f;
#X floatatom 1514 445 6 0 0 0 - - -;
#X obj 1601 450 +~ 0.5;
#X obj 1514 518 -~ 0.5;
#X obj 1514 544 *~ 0.5;
#X obj 1745 519 -~ 0.5;
#X obj 1745 552 *~ 0.5;
#X obj 1514 356 - 1;
#X obj 1514 277 * 0.05776;
#X obj 1514 382 * -1;
#X text 1548 246 <-- transposition;
#X text 1447 208 (halftones);
#X text 1583 320 speed;
#X text 1576 337 change;
#X text 1776 271 <--window (msec);
#X text 1549 412 tape head;
#X obj 1514 476 phasor~;
#X obj 1871 476 max 1.5;
#X obj 1732 299 max 1;
#X text 1550 425 rotation freq;
#X obj 1414 112 / 127;
#X obj 1414 186 * 48;
#X obj 1414 208 - 24;
#X floatatom 1732 321 5 0 0 0 - - -;
#X obj 1414 230 i;
#X floatatom 1414 252 5 0 0 0 - - -;
#X obj 1731 249 loadbang;
#X msg 1731 271 100;
#X obj 1871 403 loadbang;
#X msg 1871 425 0;
#X obj 1414 80 r \$0-pitchshifter-pitch-/+-s;
#X obj 1414 134 +;
#X obj 1638 103 snapshot~;
#X obj 1770 80 env~;
#X obj 1770 102 change;
#X obj 1770 124 t b;
#X obj 1770 152 bng 15 250 50 0 empty empty empty 17 7 0 10 -262144
-1 -1;
#X obj 1638 125 t b f;
#X floatatom 1828 128 5 0 0 0 - - -;
#X obj 1828 102 == 0;
#X obj 1828 147 sel 1;
#X msg 1828 169 0;
#X obj 1697 -41 r \$0-pitchshifter-cv-att-s;
#X obj 1638 41 *~;
#X obj 1697 -19 / 127;
#X obj 1697 3 pack 0 50;
#X obj 1697 25 line~;
#X obj 1514 728 *~;
#X obj 1177 490 t f f;
#X obj 1242 518 pack 0 50;
#X obj 1242 540 line~;
#X obj 1158 718 *~;
#X msg 1177 512 1 \$1;
#X obj 1177 534 -;
#X obj 1177 556 pack 0 50;
#X obj 1177 680 line~;
#X msg 1177 470 1, f 1;
#X obj 1177 449 loadbang;
#N canvas 0 50 566 300 spigot~ 0;
#X obj 63 24 inlet~;
#X obj 119 38 == 0;
#X obj 174 75 == 1;
#X obj 64 174 *~;
#X obj 180 166 *~;
#X obj 179 246 outlet~;
#X obj 63 244 outlet~;
#X obj 233 23 inlet;
#X msg 174 99 \$1 20;
#X obj 174 118 line~;
#X msg 119 59 \$1 20;
#X obj 119 78 line~;
#X connect 0 0 3 0;
#X connect 0 0 4 0;
#X connect 1 0 10 0;
#X connect 2 0 8 0;
#X connect 3 0 6 0;
#X connect 4 0 5 0;
#X connect 7 0 1 0;
#X connect 7 0 2 0;
#X connect 8 0 9 0;
#X connect 9 0 4 1;
#X connect 10 0 11 0;
#X connect 11 0 3 1;
#X restore 933 142 pd spigot~;
#X obj 933 738 +~;
#X obj 933 759 outlet~;
#X obj -36 207 delwrite~ \$0-pitchshifter-INPUT_L 5000;
#X obj 487 560 vd~ \$0-pitchshifter-INPUT_L;
#X obj 718 572 vd~ \$0-pitchshifter-INPUT_L;
#X obj 1088 222 delwrite~ \$0-pitchshifter-INPUT_R 5000;
#X obj 1577 570 vd~ \$0-pitchshifter-INPUT_R;
#X obj 1810 589 vd~ \$0-pitchshifter-INPUT_R;
#X obj 100 100 cnv 15 201 61 empty empty empty 20 12 0 14 -130227 -66577
0;
#X floatatom 259 134 5 0 0 0 - - -;
#X obj 110 134 hsl 145 15 0 127 0 1 \$0-pitchshifter-pitch-/+-s \$0-pitchshifter-pitch-/+-r
PITCH-/+ 95 8 0 10 -192447 -1 -1 10913 1;
#X obj 107 112 tgl 20 0 empty empty ⌽_PITCHSHIFTER 22 11 0 15 -204800
-1 -1 1 1;
#X obj 101 103 cnv 5 5 5 empty empty IN_L 0 2 0 8 -130162 -1 0;
#X obj 277 103 cnv 5 5 5 empty empty IN_R 0 2 0 8 -130227 -1 0;
#X obj 102 152 cnv 5 5 5 empty empty OUT_L 0 2 0 8 -130227 -1 0;
#X obj 273 152 cnv 5 5 5 empty empty OUT_R 0 2 0 8 -130227 -1 0;
#X obj -9 42 loadbang;
#X obj 58 58 delay 50;
#X obj 58 78 b, f 1;
#X msg -9 97 1, f 1;
#X msg 80 81 0, f 1;
#X obj -11 -41 loadbang;
#X msg -11 -19 96.25;
#X obj -11 2 s \$0-pitchshifter-pitch-/+-r;
#X obj 146 -254 cnv 15 230 160 empty empty MIDI_CONTROL 70 12 0 14
-204800 -66577 0;
#X obj 157 -223 cnv 15 200 110 empty empty PITCH 20 12 0 14 -261234
-66577 0;
#X floatatom 166 -178 5 0 1 0 - - -;
#X obj 166 -157 line \$1 10;
#X obj 166 -199 ctlin 41;
#X obj 166 -135 s \$0-pitchshifter-pitch-/+-r;
#X obj 295 34 inlet~;
#X obj 324 102 /~ 127;
#X obj 259 193 *~ 48;
#X obj 259 215 -~ 24;
#X connect 0 0 28 0;
#X connect 1 0 11 0;
#X connect 2 0 1 1;
#X connect 2 0 16 1;
#X connect 3 0 2 0;
#X connect 4 0 5 0;
#X connect 5 0 27 0;
#X connect 6 0 21 0;
#X connect 7 0 20 0;
#X connect 8 0 11 1;
#X connect 8 0 17 1;
#X connect 9 0 8 0;
#X connect 10 0 37 0;
#X connect 11 0 164 0;
#X connect 12 0 13 0;
#X connect 13 0 14 0;
#X connect 14 0 66 0;
#X connect 15 0 16 0;
#X connect 15 0 25 0;
#X connect 16 0 17 0;
#X connect 17 0 165 0;
#X connect 18 0 19 0;
#X connect 19 0 14 1;
#X connect 20 0 6 0;
#X connect 20 1 6 1;
#X connect 21 0 36 0;
#X connect 22 0 15 0;
#X connect 23 0 24 0;
#X connect 24 0 12 0;
#X connect 25 0 26 0;
#X connect 26 0 18 0;
#X connect 27 0 29 0;
#X connect 28 0 4 0;
#X connect 29 0 6 0;
#X connect 36 0 1 0;
#X connect 36 0 23 0;
#X connect 36 0 22 0;
#X connect 37 0 9 0;
#X connect 38 0 7 0;
#X connect 38 0 3 0;
#X connect 38 0 42 0;
#X connect 40 0 41 0;
#X connect 41 0 43 0;
#X connect 43 0 44 0;
#X connect 43 0 0 0;
#X connect 45 0 46 0;
#X connect 46 0 38 0;
#X connect 47 0 48 0;
#X connect 48 0 10 0;
#X connect 49 0 192 0;
#X connect 50 0 40 0;
#X connect 51 0 56 0;
#X connect 52 0 53 0;
#X connect 52 0 58 0;
#X connect 53 0 54 0;
#X connect 54 0 55 0;
#X connect 54 0 51 0;
#X connect 56 0 50 0;
#X connect 56 1 50 1;
#X connect 57 0 59 0;
#X connect 58 0 57 0;
#X connect 59 0 60 0;
#X connect 60 0 50 1;
#X connect 61 0 63 0;
#X connect 62 0 52 0;
#X connect 62 0 51 0;
#X connect 63 0 64 0;
#X connect 64 0 65 0;
#X connect 65 0 62 1;
#X connect 66 0 80 1;
#X connect 67 0 71 0;
#X connect 67 1 68 0;
#X connect 68 0 69 0;
#X connect 69 0 66 1;
#X connect 70 0 80 1;
#X connect 71 0 72 0;
#X connect 72 0 73 0;
#X connect 73 0 74 0;
#X connect 74 0 70 1;
#X connect 75 0 170 0;
#X connect 76 0 67 0;
#X connect 77 0 76 0;
#X connect 78 0 80 0;
#X connect 78 1 70 0;
#X connect 78 1 163 0;
#X connect 79 0 78 0;
#X connect 79 0 160 0;
#X connect 80 0 81 0;
#X connect 82 0 110 0;
#X connect 83 0 93 0;
#X connect 84 0 83 1;
#X connect 84 0 98 1;
#X connect 85 0 84 0;
#X connect 86 0 87 0;
#X connect 87 0 109 0;
#X connect 88 0 103 0;
#X connect 89 0 102 0;
#X connect 90 0 93 1;
#X connect 90 0 99 1;
#X connect 91 0 90 0;
#X connect 92 0 119 0;
#X connect 93 0 167 0;
#X connect 94 0 95 0;
#X connect 95 0 96 0;
#X connect 96 0 149 0;
#X connect 97 0 98 0;
#X connect 97 0 107 0;
#X connect 98 0 99 0;
#X connect 99 0 168 0;
#X connect 100 0 101 0;
#X connect 101 0 96 1;
#X connect 102 0 88 0;
#X connect 102 1 88 1;
#X connect 103 0 118 0;
#X connect 104 0 97 0;
#X connect 105 0 106 0;
#X connect 106 0 94 0;
#X connect 107 0 108 0;
#X connect 108 0 100 0;
#X connect 109 0 111 0;
#X connect 110 0 86 0;
#X connect 111 0 88 0;
#X connect 118 0 83 0;
#X connect 118 0 105 0;
#X connect 118 0 104 0;
#X connect 119 0 91 0;
#X connect 120 0 89 0;
#X connect 120 0 85 0;
#X connect 120 0 125 0;
#X connect 122 0 133 0;
#X connect 123 0 124 0;
#X connect 124 0 126 0;
#X connect 126 0 127 0;
#X connect 126 0 82 0;
#X connect 128 0 129 0;
#X connect 129 0 120 0;
#X connect 130 0 131 0;
#X connect 131 0 92 0;
#X connect 132 0 122 0;
#X connect 133 0 123 0;
#X connect 134 0 139 0;
#X connect 135 0 136 0;
#X connect 135 0 141 0;
#X connect 136 0 137 0;
#X connect 137 0 138 0;
#X connect 137 0 134 0;
#X connect 139 0 133 0;
#X connect 139 1 133 1;
#X connect 140 0 142 0;
#X connect 141 0 140 0;
#X connect 142 0 143 0;
#X connect 143 0 133 1;
#X connect 144 0 146 0;
#X connect 145 0 135 0;
#X connect 145 0 134 0;
#X connect 146 0 147 0;
#X connect 147 0 148 0;
#X connect 148 0 145 1;
#X connect 149 0 161 1;
#X connect 150 0 154 0;
#X connect 150 1 151 0;
#X connect 151 0 152 0;
#X connect 152 0 149 1;
#X connect 153 0 161 1;
#X connect 154 0 155 0;
#X connect 155 0 156 0;
#X connect 156 0 157 0;
#X connect 157 0 153 1;
#X connect 158 0 150 0;
#X connect 159 0 158 0;
#X connect 160 0 161 0;
#X connect 160 1 153 0;
#X connect 160 1 166 0;
#X connect 161 0 162 0;
#X connect 164 0 13 1;
#X connect 165 0 19 1;
#X connect 167 0 95 1;
#X connect 168 0 101 1;
#X connect 172 0 78 1;
#X connect 172 0 160 1;
#X connect 177 0 178 0;
#X connect 177 0 180 0;
#X connect 178 0 179 0;
#X connect 179 0 181 0;
#X connect 180 0 172 0;
#X connect 182 0 183 0;
#X connect 183 0 184 0;
#X connect 187 0 188 0;
#X connect 188 0 190 0;
#X connect 189 0 187 0;
#X connect 191 0 192 0;
#X connect 192 0 50 0;
#X connect 192 0 193 0;
#X connect 193 0 194 0;
#X connect 194 0 75 0;
#X coords 0 -1 1 1 202 62 2 100 100;
