#N canvas 237 85 892 516 10;
#X obj 500 15 hsl 128 15 0 10 0 0 empty empty empty -2 -8 0 10 -262144
-1 -1 0 1;
#X obj 338 122 *~ 2;
#X obj 338 142 +~ 2;
#X obj 377 164 *~ 2;
#X obj 376 187 +~ 2;
#X obj 124 96 delwrite~ phase2 100;
#X obj 376 213 vd~ phase2;
#X obj 377 120 wrap~;
#X obj 347 65 phasor~;
#X obj 376 99 +~ 0.5;
#X obj 338 99 cos~;
#X obj 377 140 cos~;
#X obj 616 92 hsl 128 15 0 3 0 0 empty empty empty -2 -8 0 10 -262144
-1 -1 0 1;
#X obj 376 236 *~ 0.8;
#X obj 338 297 *~ 0.8;
#X obj 447 324 s~ output;
#X obj 111 282 r~ output;
#X obj 532 231 hsl 128 15 -0.9 0.9 0 0 empty empty empty -2 -8 0 10
-262144 -1 -1 8500 1;
#X text 252 30 <-- Write to delay lines;
#X text 448 210 <-- Read from delay line 2;
#X text 442 274 <-- Read from delay line 1;
#X obj 339 274 vd~ phase1;
#X obj 125 36 delwrite~ phase1 100;
#X text 410 65 <-- Low Frequency Oscillator (LFO);
#X floatatom 497 39 5 0 0 0 - - -;
#X floatatom 610 133 5 0 0 0 - - -;
#X floatatom 529 252 5 0 0 0 - - -;
#X text 640 11 <-- Speed (try 0.7);
#X text 645 110 <-- Depth (try 2.4);
#X text 672 231 <-- Feedback (try -0.3);
#X text 443 405 comment;
#X obj 81 339 *~;
#X obj 149 378 outlet~;
#X msg 552 121 2.4;
#X msg 499 -26 0.7;
#X obj 553 91 inlet~;
#X obj 80 -71 inlet~;
#X obj 87 377 outlet~;
#X connect 0 0 24 0;
#X connect 1 0 2 0;
#X connect 2 0 21 0;
#X connect 3 0 4 0;
#X connect 4 0 6 0;
#X connect 6 0 13 0;
#X connect 6 0 15 0;
#X connect 7 0 11 0;
#X connect 8 0 9 0;
#X connect 8 0 10 0;
#X connect 9 0 7 0;
#X connect 10 0 1 0;
#X connect 11 0 3 0;
#X connect 12 0 25 0;
#X connect 13 0 5 0;
#X connect 14 0 22 0;
#X connect 16 0 31 1;
#X connect 17 0 26 0;
#X connect 21 0 14 0;
#X connect 21 0 15 0;
#X connect 24 0 8 0;
#X connect 25 0 1 1;
#X connect 25 0 2 1;
#X connect 25 0 3 1;
#X connect 25 0 4 1;
#X connect 26 0 14 1;
#X connect 31 0 32 0;
#X connect 31 0 37 0;
#X connect 33 0 2 1;
#X connect 33 0 1 1;
#X connect 33 0 3 1;
#X connect 33 0 4 1;
#X connect 34 0 8 0;
#X connect 36 0 5 0;
#X connect 36 0 22 0;
#X connect 36 0 31 0;
