#N canvas 635 168 450 390 12;
#X obj 101 38 inlet~ signal;
#X obj 102 258 *~;
#X obj 236 40 inlet control;
#X obj 236 64 / 4;
#X floatatom 236 89 5 0 0 0 - - -;
#X obj 236 112 + 0.75;
#X msg 236 136 \$1 10;
#X obj 236 160 line~;
#X obj 236 184 cos~;
#X obj 219 258 *~;
#X msg 121 165 \$1 10;
#X obj 121 189 line~;
#X obj 121 213 cos~;
#X obj 102 296 outlet~ l;
#X obj 219 294 outlet~ r;
#X text 271 63 rango 0- 0.25;
#X connect 0 0 1 0;
#X connect 0 0 9 0;
#X connect 1 0 13 0;
#X connect 2 0 3 0;
#X connect 3 0 4 0;
#X connect 4 0 5 0;
#X connect 4 0 10 0;
#X connect 5 0 6 0;
#X connect 6 0 7 0;
#X connect 7 0 8 0;
#X connect 8 0 9 1;
#X connect 9 0 14 0;
#X connect 10 0 11 0;
#X connect 11 0 12 0;
#X connect 12 0 1 1;
