#N canvas 1594 166 723 578 10;
#X obj 199 180 osc~;
#X obj 200 246 *~;
#X obj 200 297 clip~ -1 1;
#X obj 59 401 *~;
#X obj 202 152 hsl 128 15 0.5 25 0 0 empty empty empty -2 -8 0 10 -262144
-1 -1 0 1;
#X text 250 181 <-- Sine wave (between -1 and 1);
#X text 239 246 <-- Multipled by a positive number X;
#X text 261 260 (between -X and X);
#X text 271 297 <-- Trim at -1 and 1;
#X text 294 325 a square wave as X increases);
#X text 294 311 (the sine wave tends to become;
#X text 198 137 Frequency of the oscillator;
#X text 252 207 Number X (between 1 and 20 \, log);
#X text 201 473 Patch by Pierre Massat \, GuitarExtended \, 2012;
#X text 198 487 (based on a suggestion by "mod" \, Pure Data forum
\, 2011);
#X obj 200 380 *~;
#X obj 200 409 +~;
#X obj 263 409 expr 1-$f1;
#X floatatom 263 431 5 0 0 0 - - -;
#X text 363 408 and adjust depth;
#X text 366 137 ("Rate");
#X text 451 207 ("Shape");
#X text 274 346 "Depth";
#X obj 56 35 inlet~;
#X obj 51 443 outlet~;
#X obj 103 443 outlet~;
#X obj 169 58 * 24.5;
#X obj 169 83 + 0.5;
#X msg 263 376 1;
#X msg 264 224 10, f 4;
#X obj 169 33 inlet~;
#X connect 0 0 1 0;
#X connect 1 0 2 0;
#X connect 2 0 15 0;
#X connect 3 0 25 0;
#X connect 3 0 24 0;
#X connect 15 0 16 0;
#X connect 16 0 3 1;
#X connect 17 0 16 1;
#X connect 17 0 18 0;
#X connect 23 0 3 0;
#X connect 26 0 27 0;
#X connect 27 0 0 0;
#X connect 28 0 15 1;
#X connect 28 0 17 0;
#X connect 29 0 1 1;
#X connect 30 0 26 0;
