#N canvas -8 -8 1366 695 12;
#X obj 412 315 table looper 220500;
#X obj 406 164 adc~;
#X obj 417 226 tabwrite~ looper;
#X obj 510 152 sel 1 0;
#X msg 533 196 stop;
#X obj 1254 405 loadbang;
#X obj 1254 453 s bela_setDigital;
#X obj 579 403 tabread~ looper;
#X obj 567 454 dac~;
#X obj 580 346 phasor~;
#X obj 580 374 *~ 1;
#X obj 575 196 timer;
#X obj 575 231 t b f f;
#X obj 644 346 * 44.1;
#X msg 559 269 1000;
#X obj 580 315 /;
#X obj 443 100 tgl 15 0 empty empty empty 17 7 0 10 -262144 -1 -1 0
1;
#X obj 661 636 writesf~;
#X msg 1254 429 in 18;
#X obj 528 91 r bela_digitalIn18;
#X connect 1 0 2 0;
#X connect 1 1 2 0;
#X connect 3 0 2 0;
#X connect 3 0 11 0;
#X connect 3 1 4 0;
#X connect 3 1 11 1;
#X connect 4 0 2 0;
#X connect 5 0 18 0;
#X connect 7 0 8 0;
#X connect 7 0 8 1;
#X connect 9 0 10 0;
#X connect 10 0 7 0;
#X connect 11 0 12 0;
#X connect 12 0 14 0;
#X connect 12 1 15 1;
#X connect 12 2 13 0;
#X connect 13 0 10 1;
#X connect 14 0 15 0;
#X connect 15 0 9 0;
#X connect 16 0 3 0;
#X connect 18 0 6 0;
