#N canvas 1519 37 1920 1036 10;
#X obj 287 922 line~;
#X obj 494 347 pack 0 50;
#X obj 287 827 r \$0-megaverb-dry/wet-s;
#X obj 287 849 / 127;
#X obj 287 896 pack 0 50;
#X obj 337 1166 *~;
#X obj 468 1039 r \$0-megaverb-dry/wet-s;
#X msg 468 1061 127 \$1;
#X obj 468 1083 -;
#X obj 468 1105 / 127;
#X obj 468 1127 pack 0 50;
#X obj 468 1149 line~;
#X obj 648 305 r \$0-megaverb-room-s;
#X obj 648 327 / 127;
#X obj 494 369 line~;
#X obj 495 285 / 127;
#X obj 495 262 r \$0-megaverb-damping-s;
#X obj 494 391 +~;
#X obj 190 651 +~;
#X obj 213 550 *~;
#X obj 515 555 *~;
#X obj 314 555 *~;
#X obj 416 555 *~;
#X obj 472 689 -~;
#X obj 393 688 -~;
#X obj 268 691 +~;
#X obj 190 688 +~;
#X obj 191 587 +~;
#X obj 291 583 +~;
#X obj 493 644 -~;
#X obj 416 642 +~;
#X obj 268 654 -~;
#X obj 201 1135 *~;
#X obj 270 1136 *~;
#N canvas 341 84 939 597 early-reflect 0;
#X obj 84 119 -~;
#X obj 49 119 +~;
#X obj 50 195 +~;
#X obj 85 196 -~;
#X obj 84 275 -~;
#X obj 49 274 +~;
#X obj 82 349 -~;
#X obj 48 350 +~;
#X obj 83 428 -~;
#X obj 49 428 +~;
#X obj 65 7 inlet~;
#X obj 49 508 outlet~;
#X obj 119 505 outlet~;
#X obj 110 66 delwrite~ \$0-ref1_L 43.5337;
#X obj 110 90 delread~ \$0-ref1_L 43.5337;
#X obj 107 145 delwrite~ \$0-ref2_L 25.796;
#X obj 107 169 delread~ \$0-ref2_L 25.796;
#X obj 106 223 delwrite~ \$0-ref3_L 19.392;
#X obj 106 247 delread~ \$0-ref3_L 19.392;
#X obj 102 300 delwrite~ \$0-ref4_L 16.364;
#X obj 102 324 delread~ \$0-ref4_L 16.364;
#X obj 106 376 delwrite~ \$0-ref5_L 7.645;
#X obj 106 400 delread~ \$0-ref5_L 7.645;
#X obj 119 452 delwrite~ \$0-ref6_L 4.2546;
#X obj 119 475 delread~ \$0-ref6_L 4.2546;
#X connect 0 0 15 0;
#X connect 1 0 3 0;
#X connect 1 0 2 0;
#X connect 2 0 5 0;
#X connect 2 0 4 0;
#X connect 3 0 17 0;
#X connect 4 0 19 0;
#X connect 5 0 7 0;
#X connect 5 0 6 0;
#X connect 6 0 21 0;
#X connect 7 0 9 0;
#X connect 7 0 8 0;
#X connect 8 0 23 0;
#X connect 9 0 11 0;
#X connect 10 0 1 0;
#X connect 10 0 0 0;
#X connect 10 0 13 0;
#X connect 14 0 1 1;
#X connect 14 0 0 1;
#X connect 16 0 2 1;
#X connect 16 0 3 1;
#X connect 18 0 5 1;
#X connect 18 0 4 1;
#X connect 20 0 7 1;
#X connect 20 0 6 1;
#X connect 22 0 9 1;
#X connect 22 0 8 1;
#X connect 24 0 12 0;
#X restore -27 518 pd early-reflect;
#X obj 58 412 -~;
#X obj 57 443 *~;
#X obj 45 474 +~;
#X obj 135 417 -~;
#X obj 134 452 *~;
#X obj 124 476 +~;
#X obj 217 416 -~;
#X obj 216 457 *~;
#X obj 205 482 +~;
#X obj 310 417 -~;
#X obj 310 461 *~;
#X obj 287 485 +~;
#X obj 287 946 clip~ 0 0.125;
#X obj 648 402 + 0.25;
#X obj 648 455 pack 0 50;
#X obj 648 477 line~;
#X obj 648 501 +~;
#X obj 538 517 clip~ 0.25 0.5;
#X obj 287 873 * 0.1;
#X obj 648 380 * 0.25;
#X obj 648 428 clip 0.25 0.49;
#X obj 332 970 / 127;
#X obj 331 1038 + 50;
#X obj 331 1060 pack 0 50;
#X obj 331 994 +;
#X obj 711 485 *~ 0.5;
#X obj 337 392 lop~ 3000;
#X obj 243 388 lop~ 3000;
#X obj 161 383 lop~ 3000;
#X obj 81 379 lop~ 3000;
#X obj 198 1086 lop~;
#X obj 198 1056 lop~;
#X obj 252 1090 lop~;
#X obj 252 1060 lop~;
#X obj 332 1086 line;
#X obj 519 956 snapshot~;
#X obj 519 978 t b f;
#X obj 469 893 env~;
#X floatatom 469 937 5 0 0 0 - - -;
#X obj 469 915 > 0;
#X obj 469 956 sel 1;
#X msg 469 978 0;
#X obj 519 910 tgl 15 0 empty empty empty 17 7 0 10 -262144 -1 -1 1
1;
#X obj 519 930 metro 10;
#X obj 519 883 loadbang;
#X floatatom 388 985 5 0 0 0 - - -;
#X floatatom 423 383 5 0 0 0 - - -;
#X obj 494 430 clip~ 0 0.75;
#X obj 495 307 * 0.75;
#X obj 331 1016 * 9950;
#X obj 146 -197 cnv 15 640 160 empty empty MIDI_CONTROL 280 12 0 14
-204800 -66577 0;
#X obj 157 -166 cnv 15 200 110 empty empty RATE-LEFT 20 12 0 14 -261234
-66577 0;
#X floatatom 166 -121 5 0 1 0 - - -;
#X obj 166 -100 line \$1 10;
#X obj 362 -166 cnv 15 200 110 empty empty FEEDBACK 20 12 0 14 -204786
-66577 0;
#X floatatom 373 -119 5 0 1 0 - - -;
#X obj 373 -98 line \$1 10;
#X obj 568 -167 cnv 15 200 110 empty empty VOLUME_OUT 20 12 0 14 -203904
-66577 0;
#X floatatom 576 -122 5 0 1 0 - - -;
#X obj 576 -101 line \$1 10;
#X obj 576 -79 s \$0-megaverb-dry/wet-r;
#X obj 373 -76 s \$0-megaverb-damping-r;
#X obj 166 -78 s \$0-megaverb-room-r;
#X obj 678 12 s \$0-megaverb-room-r;
#X obj 678 33 s \$0-megaverb-damping-r;
#X obj 678 53 s \$0-megaverb-lowpass-r;
#X obj 678 74 s \$0-megaverb-dry/wet-r;
#X msg 620 -4 64;
#X obj 620 -25 loadbang;
#N canvas 0 50 566 300 spigot~ 0;
#X obj 63 24 inlet~;
#X obj 119 38 == 0;
#X obj 174 75 == 1;
#X obj 64 174 *~;
#X obj 180 166 *~;
#X obj 179 246 outlet~;
#X obj 63 244 outlet~;
#X obj 233 23 inlet;
#X msg 174 99 \$1 20;
#X obj 174 118 line~;
#X msg 119 59 \$1 20;
#X obj 119 78 line~;
#X connect 0 0 3 0;
#X connect 0 0 4 0;
#X connect 1 0 10 0;
#X connect 2 0 8 0;
#X connect 3 0 6 0;
#X connect 4 0 5 0;
#X connect 7 0 1 0;
#X connect 7 0 2 0;
#X connect 8 0 9 0;
#X connect 9 0 4 1;
#X connect 10 0 11 0;
#X connect 11 0 3 1;
#X restore -84 128 pd spigot~;
#X obj -84 97 inlet~;
#X obj -84 1130 +~;
#X obj -84 1177 outlet~;
#X obj 190 795 delwrite~ \$0-del1_L 58.6435;
#X obj 269 771 delwrite~ \$0-del2_L 69.4325;
#X obj 394 738 delwrite~ \$0-del3_L 74.5234;
#X obj 472 716 delwrite~ \$0-del4_L 86.1244;
#X obj 287 332 delread~ \$0-del4_L 86.1244;
#X obj 205 308 delread~ \$0-del3_L 74.5234;
#X obj 123 286 delread~ \$0-del2_L 69.4325;
#X obj 45 264 delread~ \$0-del1_L 58.6435;
#X obj 61 235 s~ \$0-megaverb-dry_L;
#X obj 337 1132 r~ \$0-megaverb-dry_L;
#X obj 1277 922 line~;
#X obj 1484 347 pack 0 50;
#X obj 1277 827 r \$0-megaverb-dry/wet-s;
#X obj 1277 849 / 127;
#X obj 1277 896 pack 0 50;
#X obj 1327 1166 *~;
#X obj 1458 1039 r \$0-megaverb-dry/wet-s;
#X msg 1458 1061 127 \$1;
#X obj 1458 1083 -;
#X obj 1458 1105 / 127;
#X obj 1458 1127 pack 0 50;
#X obj 1458 1149 line~;
#X obj 1638 305 r \$0-megaverb-room-s;
#X obj 1638 327 / 127;
#X obj 1484 369 line~;
#X obj 1485 285 / 127;
#X obj 1485 262 r \$0-megaverb-damping-s;
#X obj 1484 391 +~;
#X obj 1180 651 +~;
#X obj 1203 550 *~;
#X obj 1505 555 *~;
#X obj 1304 555 *~;
#X obj 1406 555 *~;
#X obj 1462 689 -~;
#X obj 1383 688 -~;
#X obj 1258 691 +~;
#X obj 1180 688 +~;
#X obj 1181 587 +~;
#X obj 1281 583 +~;
#X obj 1483 644 -~;
#X obj 1406 642 +~;
#X obj 1258 654 -~;
#X obj 1191 1135 *~;
#X obj 1260 1136 *~;
#N canvas 341 84 939 597 early-reflect 0;
#X obj 84 119 -~;
#X obj 49 119 +~;
#X obj 50 195 +~;
#X obj 85 196 -~;
#X obj 84 275 -~;
#X obj 49 274 +~;
#X obj 82 349 -~;
#X obj 48 350 +~;
#X obj 83 428 -~;
#X obj 49 428 +~;
#X obj 65 7 inlet~;
#X obj 49 508 outlet~;
#X obj 119 505 outlet~;
#X obj 110 66 delwrite~ \$0-ref1_R 43.5337;
#X obj 110 90 delread~ \$0-ref1_R 43.5337;
#X obj 107 145 delwrite~ \$0-ref2_R 25.796;
#X obj 107 169 delread~ \$0-ref2_R 25.796;
#X obj 106 223 delwrite~ \$0-ref3_R 19.392;
#X obj 106 247 delread~ \$0-ref3_R 19.392;
#X obj 102 300 delwrite~ \$0-ref4_R 16.364;
#X obj 102 324 delread~ \$0-ref4_R 16.364;
#X obj 106 376 delwrite~ \$0-ref5_R 7.645;
#X obj 106 400 delread~ \$0-ref5_R 7.645;
#X obj 119 452 delwrite~ \$0-ref6_R 4.2546;
#X obj 119 475 delread~ \$0-ref6_R 4.2546;
#X connect 0 0 15 0;
#X connect 1 0 3 0;
#X connect 1 0 2 0;
#X connect 2 0 5 0;
#X connect 2 0 4 0;
#X connect 3 0 17 0;
#X connect 4 0 19 0;
#X connect 5 0 7 0;
#X connect 5 0 6 0;
#X connect 6 0 21 0;
#X connect 7 0 9 0;
#X connect 7 0 8 0;
#X connect 8 0 23 0;
#X connect 9 0 11 0;
#X connect 10 0 1 0;
#X connect 10 0 0 0;
#X connect 10 0 13 0;
#X connect 14 0 1 1;
#X connect 14 0 0 1;
#X connect 16 0 2 1;
#X connect 16 0 3 1;
#X connect 18 0 5 1;
#X connect 18 0 4 1;
#X connect 20 0 7 1;
#X connect 20 0 6 1;
#X connect 22 0 9 1;
#X connect 22 0 8 1;
#X connect 24 0 12 0;
#X restore 963 518 pd early-reflect;
#X obj 1048 412 -~;
#X obj 1047 443 *~;
#X obj 1035 474 +~;
#X obj 1125 417 -~;
#X obj 1124 452 *~;
#X obj 1114 476 +~;
#X obj 1207 416 -~;
#X obj 1206 457 *~;
#X obj 1195 482 +~;
#X obj 1300 417 -~;
#X obj 1300 461 *~;
#X obj 1277 485 +~;
#X obj 1277 946 clip~ 0 0.125;
#X obj 1638 402 + 0.25;
#X obj 1638 455 pack 0 50;
#X obj 1638 477 line~;
#X obj 1638 501 +~;
#X obj 1528 517 clip~ 0.25 0.5;
#X obj 1277 873 * 0.1;
#X obj 1638 380 * 0.25;
#X obj 1638 428 clip 0.25 0.49;
#X obj 1322 970 / 127;
#X obj 1321 1038 + 50;
#X obj 1321 1060 pack 0 50;
#X obj 1321 994 +;
#X obj 1701 485 *~ 0.5;
#X obj 1327 392 lop~ 3000;
#X obj 1233 388 lop~ 3000;
#X obj 1151 383 lop~ 3000;
#X obj 1071 379 lop~ 3000;
#X obj 1188 1086 lop~;
#X obj 1188 1056 lop~;
#X obj 1242 1090 lop~;
#X obj 1242 1060 lop~;
#X obj 1322 1086 line;
#X obj 1509 956 snapshot~;
#X obj 1509 978 t b f;
#X obj 1459 893 env~;
#X floatatom 1459 937 5 0 0 0 - - -;
#X obj 1459 915 > 0;
#X obj 1459 956 sel 1;
#X msg 1459 978 0;
#X obj 1509 910 tgl 15 0 empty empty empty 17 7 0 10 -262144 -1 -1
1 1;
#X obj 1509 930 metro 10;
#X obj 1509 883 loadbang;
#X floatatom 1378 985 5 0 0 0 - - -;
#X floatatom 1413 383 5 0 0 0 - - -;
#X obj 1484 430 clip~ 0 0.75;
#X obj 1485 307 * 0.75;
#X obj 1321 1016 * 9950;
#N canvas 0 50 566 300 spigot~ 0;
#X obj 63 24 inlet~;
#X obj 119 38 == 0;
#X obj 174 75 == 1;
#X obj 64 174 *~;
#X obj 180 166 *~;
#X obj 179 246 outlet~;
#X obj 63 244 outlet~;
#X obj 233 23 inlet;
#X msg 174 99 \$1 20;
#X obj 174 118 line~;
#X msg 119 59 \$1 20;
#X obj 119 78 line~;
#X connect 0 0 3 0;
#X connect 0 0 4 0;
#X connect 1 0 10 0;
#X connect 2 0 8 0;
#X connect 3 0 6 0;
#X connect 4 0 5 0;
#X connect 7 0 1 0;
#X connect 7 0 2 0;
#X connect 8 0 9 0;
#X connect 9 0 4 1;
#X connect 10 0 11 0;
#X connect 11 0 3 1;
#X restore 906 128 pd spigot~;
#X obj 906 97 inlet~;
#X obj 906 1130 +~;
#X obj 906 1177 outlet~;
#X obj 1051 235 s~ \$0-megaverb-dry_R;
#X obj 1035 264 delread~ \$0-del1_R 58.6435;
#X obj 1113 286 delread~ \$0-del2_R 69.4325;
#X obj 1195 308 delread~ \$0-del3_R 74.5234;
#X obj 1277 332 delread~ \$0-del4_R 86.1244;
#X obj 1180 795 delwrite~ \$0-del1_R 58.6435;
#X obj 1259 771 delwrite~ \$0-del2_R 69.4325;
#X obj 1384 738 delwrite~ \$0-del3_R 74.5234;
#X obj 1462 716 delwrite~ \$0-del4_R 86.1244;
#X obj 1327 1132 r~ \$0-megaverb-dry_R;
#X obj 680 100 cnv 15 200 110 empty empty empty 20 12 0 14 -145527
-66577 0;
#X obj 689 182 hsl 128 15 0 127 0 1 \$0-megaverb-dry/wet-s \$0-megaverb-dry/wet-r
DRY/WET 135 7 0 10 -187263 -1 -1 6400 1;
#X obj 689 138 hsl 128 15 0 127 0 1 \$0-megaverb-room-s \$0-megaverb-room-r
SIZE 135 7 0 10 -187263 -1 -1 6400 1;
#X obj 689 152 hsl 128 15 0 127 0 1 \$0-megaverb-damping-s \$0-megaverb-damping-r
DAMPING 135 7 0 10 -187263 -1 -1 6400 1;
#X obj 689 167 hsl 128 15 0 127 0 1 \$0-megaverb-lowpass-s \$0-megaverb-lowpass-r
LOWPASS 133 7 0 10 -187263 -1 -1 6400 1;
#X obj 686 114 tgl 20 0 empty empty ⌽_REVERB 22 8 0 15 -203904 -1
-1 1 1;
#X obj 683 104 cnv 5 5 5 empty empty IN_L 0 2 0 8 -124660 -1 0;
#X obj 855 104 cnv 5 5 5 empty empty IN_R 0 2 0 8 -124660 -1 0;
#X obj 683 201 cnv 5 5 5 empty empty OUT_L 0 2 0 8 -124660 -1 0;
#X obj 850 201 cnv 5 5 5 empty empty OUT_R 0 2 0 8 -124660 -1 0;
#X obj 519 43 loadbang;
#X obj 586 59 delay 50;
#X obj 586 79 b, f 1;
#X msg 519 98 1, f 1;
#X msg 586 98 0, f 1;
#X obj 202 1184 *~ 0.5;
#X obj 270 1180 *~ 0.5;
#X obj 1192 1184 *~ 0.5;
#X obj 1260 1180 *~ 0.5;
#X obj 166 -142;
#X obj 373 -140;
#X obj 576 -143;
#X connect 0 0 47 0;
#X connect 1 0 14 0;
#X connect 2 0 3 0;
#X connect 3 0 53 0;
#X connect 4 0 0 0;
#X connect 5 0 232 0;
#X connect 5 0 233 0;
#X connect 6 0 7 0;
#X connect 7 0 8 0;
#X connect 8 0 9 0;
#X connect 9 0 10 0;
#X connect 10 0 11 0;
#X connect 11 0 5 1;
#X connect 12 0 13 0;
#X connect 13 0 54 0;
#X connect 14 0 17 0;
#X connect 15 0 83 0;
#X connect 16 0 15 0;
#X connect 17 0 82 0;
#X connect 18 0 26 0;
#X connect 18 0 24 0;
#X connect 19 0 27 1;
#X connect 20 0 29 1;
#X connect 20 0 30 1;
#X connect 21 0 28 1;
#X connect 22 0 30 0;
#X connect 22 0 29 0;
#X connect 23 0 111 0;
#X connect 24 0 110 0;
#X connect 25 0 109 0;
#X connect 26 0 108 0;
#X connect 27 0 31 0;
#X connect 27 0 18 0;
#X connect 27 0 66 0;
#X connect 28 0 18 1;
#X connect 28 0 31 1;
#X connect 28 0 68 0;
#X connect 29 0 25 1;
#X connect 29 0 23 1;
#X connect 30 0 26 1;
#X connect 30 0 24 1;
#X connect 31 0 25 0;
#X connect 31 0 23 0;
#X connect 32 0 232 0;
#X connect 33 0 233 0;
#X connect 34 0 27 0;
#X connect 34 1 28 0;
#X connect 35 0 36 0;
#X connect 36 0 37 1;
#X connect 37 0 19 0;
#X connect 38 0 39 0;
#X connect 39 0 40 1;
#X connect 40 0 21 0;
#X connect 41 0 42 0;
#X connect 42 0 43 1;
#X connect 43 0 22 0;
#X connect 44 0 45 0;
#X connect 45 0 46 1;
#X connect 46 0 20 0;
#X connect 47 0 32 1;
#X connect 47 0 33 1;
#X connect 48 0 55 0;
#X connect 49 0 50 0;
#X connect 50 0 51 0;
#X connect 51 0 52 0;
#X connect 52 0 21 1;
#X connect 52 0 19 1;
#X connect 52 0 22 1;
#X connect 52 0 20 1;
#X connect 53 0 4 0;
#X connect 54 0 48 0;
#X connect 55 0 49 0;
#X connect 56 0 59 0;
#X connect 57 0 58 0;
#X connect 57 0 80 0;
#X connect 58 0 69 0;
#X connect 59 0 84 0;
#X connect 60 0 51 1;
#X connect 61 0 44 0;
#X connect 62 0 41 0;
#X connect 63 0 38 0;
#X connect 64 0 35 0;
#X connect 65 0 32 0;
#X connect 66 0 65 0;
#X connect 67 0 33 0;
#X connect 68 0 67 0;
#X connect 69 0 68 1;
#X connect 69 0 67 1;
#X connect 69 0 65 1;
#X connect 69 0 66 1;
#X connect 70 0 71 0;
#X connect 71 0 59 0;
#X connect 71 1 59 1;
#X connect 72 0 74 0;
#X connect 73 0 75 0;
#X connect 74 0 73 0;
#X connect 75 0 76 0;
#X connect 76 0 59 1;
#X connect 77 0 78 0;
#X connect 78 0 70 0;
#X connect 79 0 77 0;
#X connect 82 0 36 1;
#X connect 82 0 39 1;
#X connect 82 0 42 1;
#X connect 82 0 45 1;
#X connect 83 0 1 0;
#X connect 83 0 81 0;
#X connect 84 0 57 0;
#X connect 87 0 88 0;
#X connect 88 0 97 0;
#X connect 90 0 91 0;
#X connect 91 0 96 0;
#X connect 93 0 94 0;
#X connect 94 0 95 0;
#X connect 102 0 98 0;
#X connect 102 0 99 0;
#X connect 102 0 100 0;
#X connect 102 0 101 0;
#X connect 103 0 102 0;
#X connect 104 0 106 0;
#X connect 104 1 34 0;
#X connect 104 1 116 0;
#X connect 105 0 104 0;
#X connect 106 0 107 0;
#X connect 112 0 46 0;
#X connect 112 0 44 1;
#X connect 112 0 61 0;
#X connect 113 0 43 0;
#X connect 113 0 41 1;
#X connect 113 0 62 0;
#X connect 114 0 38 1;
#X connect 114 0 40 0;
#X connect 114 0 63 0;
#X connect 115 0 35 1;
#X connect 115 0 37 0;
#X connect 115 0 64 0;
#X connect 117 0 5 0;
#X connect 118 0 165 0;
#X connect 119 0 132 0;
#X connect 120 0 121 0;
#X connect 121 0 171 0;
#X connect 122 0 118 0;
#X connect 123 0 234 0;
#X connect 123 0 235 0;
#X connect 124 0 125 0;
#X connect 125 0 126 0;
#X connect 126 0 127 0;
#X connect 127 0 128 0;
#X connect 128 0 129 0;
#X connect 129 0 123 1;
#X connect 130 0 131 0;
#X connect 131 0 172 0;
#X connect 132 0 135 0;
#X connect 133 0 201 0;
#X connect 134 0 133 0;
#X connect 135 0 200 0;
#X connect 136 0 144 0;
#X connect 136 0 142 0;
#X connect 137 0 145 1;
#X connect 138 0 147 1;
#X connect 138 0 148 1;
#X connect 139 0 146 1;
#X connect 140 0 148 0;
#X connect 140 0 147 0;
#X connect 141 0 215 0;
#X connect 142 0 214 0;
#X connect 143 0 213 0;
#X connect 144 0 212 0;
#X connect 145 0 149 0;
#X connect 145 0 136 0;
#X connect 145 0 184 0;
#X connect 146 0 136 1;
#X connect 146 0 149 1;
#X connect 146 0 186 0;
#X connect 147 0 143 1;
#X connect 147 0 141 1;
#X connect 148 0 144 1;
#X connect 148 0 142 1;
#X connect 149 0 143 0;
#X connect 149 0 141 0;
#X connect 150 0 234 0;
#X connect 151 0 235 0;
#X connect 152 0 145 0;
#X connect 152 1 146 0;
#X connect 153 0 154 0;
#X connect 154 0 155 1;
#X connect 155 0 137 0;
#X connect 156 0 157 0;
#X connect 157 0 158 1;
#X connect 158 0 139 0;
#X connect 159 0 160 0;
#X connect 160 0 161 1;
#X connect 161 0 140 0;
#X connect 162 0 163 0;
#X connect 163 0 164 1;
#X connect 164 0 138 0;
#X connect 165 0 150 1;
#X connect 165 0 151 1;
#X connect 166 0 173 0;
#X connect 167 0 168 0;
#X connect 168 0 169 0;
#X connect 169 0 170 0;
#X connect 170 0 139 1;
#X connect 170 0 137 1;
#X connect 170 0 140 1;
#X connect 170 0 138 1;
#X connect 171 0 122 0;
#X connect 172 0 166 0;
#X connect 173 0 167 0;
#X connect 174 0 177 0;
#X connect 175 0 176 0;
#X connect 175 0 198 0;
#X connect 176 0 187 0;
#X connect 177 0 202 0;
#X connect 178 0 169 1;
#X connect 179 0 162 0;
#X connect 180 0 159 0;
#X connect 181 0 156 0;
#X connect 182 0 153 0;
#X connect 183 0 150 0;
#X connect 184 0 183 0;
#X connect 185 0 151 0;
#X connect 186 0 185 0;
#X connect 187 0 186 1;
#X connect 187 0 185 1;
#X connect 187 0 183 1;
#X connect 187 0 184 1;
#X connect 188 0 189 0;
#X connect 189 0 177 0;
#X connect 189 1 177 1;
#X connect 190 0 192 0;
#X connect 191 0 193 0;
#X connect 192 0 191 0;
#X connect 193 0 194 0;
#X connect 194 0 177 1;
#X connect 195 0 196 0;
#X connect 196 0 188 0;
#X connect 197 0 195 0;
#X connect 200 0 154 1;
#X connect 200 0 157 1;
#X connect 200 0 160 1;
#X connect 200 0 163 1;
#X connect 201 0 119 0;
#X connect 201 0 199 0;
#X connect 202 0 175 0;
#X connect 203 0 205 0;
#X connect 203 1 152 0;
#X connect 203 1 207 0;
#X connect 204 0 203 0;
#X connect 205 0 206 0;
#X connect 208 0 153 1;
#X connect 208 0 155 0;
#X connect 208 0 182 0;
#X connect 209 0 156 1;
#X connect 209 0 158 0;
#X connect 209 0 181 0;
#X connect 210 0 161 0;
#X connect 210 0 159 1;
#X connect 210 0 180 0;
#X connect 211 0 164 0;
#X connect 211 0 162 1;
#X connect 211 0 179 0;
#X connect 216 0 123 0;
#X connect 221 0 56 0;
#X connect 221 0 174 0;
#X connect 222 0 203 1;
#X connect 222 0 104 1;
#X connect 227 0 228 0;
#X connect 227 0 230 0;
#X connect 228 0 229 0;
#X connect 229 0 231 0;
#X connect 230 0 222 0;
#X connect 232 0 106 1;
#X connect 233 0 106 1;
#X connect 234 0 205 1;
#X connect 235 0 205 1;
#X connect 236 0 87 0;
#X connect 237 0 90 0;
#X connect 238 0 93 0;
#X coords 0 -1 1 1 200 110 2 680 100;
