#N canvas -8 -8 1366 695 10;
#X obj 773 712 rpole~;
#X obj 838 438 *~ 1e+007;
#X obj 786 740 samphold~;
#X obj 808 664 *~ -1;
#X obj 818 683 +~ 1;
#X obj 773 874 /~;
#X obj 772 686 sig~ 1;
#X obj 892 757 samphold~;
#X obj 839 480 biquad~ 0 0 1 -1 0;
#X obj 912 716 rpole~;
#X obj 921 684 sig~ 1;
#X obj 987 662 *~ -1;
#X obj 987 683 +~ 1;
#X obj 791 804 +~;
#X obj 849 956 mtof;
#X obj 851 985 / 220;
#X obj 848 933 + 57;
#X obj 838 459 clip~ 0 1;
#X obj 826 873 /~;
#X obj 823 847 sig~;
#X obj 849 829 samplerate~;
#X obj 799 555 -~;
#X obj 799 580 clip~ -1e-037 0;
#X obj 799 622 *~ 1e+037;
#X obj 799 530 min~;
#X obj 799 601 +~ 1e-037;
#X obj 831 504 sig~ 1;
#X obj 932 551 -~;
#X obj 932 576 clip~ -1e-037 0;
#X obj 932 618 *~ 1e+037;
#X obj 932 526 min~;
#X obj 932 597 +~ 1e-037;
#X obj 964 500 sig~ -1;
#X obj 787 772 -~ 1;
#X obj 941 640 *~ 1;
#X obj 802 642 *~ 1;
#X obj 874 782 -~ 2;
#X floatatom 699 470 5 0 0 0 - - -;
#X obj 695 515 line~;
#X obj 852 806 loadbang;
#X msg 697 492 \$1 3;
#X obj 663 1061 *~;
#X obj 852 1008 sig~;
#X obj 831 1039 *~;
#X obj 850 3 adc~;
#X obj 926 323 hv.compressor 75 4;
#X obj 850 24 hip~ 80;
#X obj 850 45 hip~ 80;
#X obj 851 66 hip~ 80;
#X obj 851 87 hip~ 80;
#X obj 837 346 lop~ 600;
#X obj 838 370 lop~ 600;
#X obj 839 392 lop~ 600;
#X obj 837 412 lop~ 600;
#X obj 924 249 <;
#X obj 917 290 line~;
#X msg 914 270 \$1 5;
#X obj 840 265 *~;
#X obj 849 191 env~ 1024;
#X obj 838 301 +~;
#X obj 946 223 - 19;
#X obj 849 119 lop~ 150;
#X obj 848 142 lop~ 150;
#X obj 849 168 lop~ 150;
#X obj 935 118 hip~ 220;
#X obj 933 149 hip~ 220;
#X obj 932 176 hip~ 220;
#X obj 933 198 env~ 1024;
#X obj 655 1140 dac~;
#X floatatom 844 906 5 0 0 0 - - -;
#X text 801 5 input;
#X text 732 52 remove pop noies;
#X text 687 151 "adaptive filtering";
#X text 675 182 switch based on env reading;
#X text 987 219 to do: improve crossover from one to the other filter
;
#X text 1243 828 gate;
#X text 915 440 square up the input;
#X text 956 478 create pulses from square wave;
#X text 968 713 fill "capacitor" and reset on next pulse.;
#X text 964 758 measure amplitude of sawtooth on pulse;
#X text 918 782 do all of this twice (see left) to improve accuracy.
i have no idea why the -1 and -2 help \, but they improve accuracy
by quite a bit.;
#X text 682 801 frequency cv out;
#X text 884 903 adjust second voice to your liking;
#X text 996 535 greather then and less then "abstractions" from heavy...
;
#X obj 994 960 ftom~;
#X obj 996 985 snapshot~;
#X obj 923 983 snapshot~;
#X floatatom 922 1025 5 0 0 0 - - -;
#X floatatom 1004 1028 5 0 0 0 - - -;
#X obj 1105 987 metro 100;
#X obj 1118 938 loadbang;
#X obj 1076 947 bng 15 250 50 0 empty empty empty 17 7 0 10 -262144
-1 -1;
#X text 1054 1028 frequency and midi output;
#X obj 697 402 *~ 10;
#X obj 117 272 dbtorms;
#X obj 149 323 * 1000;
#X obj 118 217 hip~ 500;
#X obj 117 244 env~ 1000;
#X obj 149 360 - 0.3;
#X floatatom 169 388 5 0 0 0 - - -;
#X obj 256 285 cnv 15 194 73 empty empty empty 0 8 0 10 -162280 -66577
0;
#X obj 131 684 *~;
#X obj 149 620 vline~;
#X obj 149 482 moses 1;
#X obj 149 521 bang;
#X obj 400 484 bang;
#X msg 400 516 1 1;
#X obj 354 444 moses 5;
#X obj 606 295 hsl 128 15 2 5 0 0 empty empty Through_Level -2 -8 0
10 -262144 -1 -1 12700 1;
#X floatatom 603 315 5 0 0 0 - - -;
#X obj 262 307 hsl 128 15 0 4.9 0 0 empty empty TRESHOLD 133 7 0 10
-191407 -1 -1 2800 1;
#X floatatom 225 464 5 0 0 0 - - -;
#X floatatom 172 453 5 0 0 0 - - -;
#X obj 601 235 loadbang;
#X obj 262 322 hsl 128 15 1 100 0 0 empty empty DECAY 133 7 0 10 -191407
-1 -1 12500 1;
#X obj 149 574 pack 0 f;
#X floatatom 259 337 4 0 0 1 - - -;
#X obj 394 287 tgl 15 0 empty empty Signal 17 7 0 10 -191407 -1 -1
0 1;
#X msg 247 540 0;
#X msg 443 517 1;
#X obj 259 287 tgl 15 0 empty empty ⌽_NOISE_GATE_RETURN 17 7 0 10
-191407 -1 -1 1 1;
#X msg 296 205 1;
#X msg 602 260 4;
#X obj 202 707 hsl 128 15 1000 10000 0 0 empty empty empty -2 -8 0
10 -262144 -1 -1 5644 1;
#X floatatom 199 727 5 0 0 0 - - -;
#X obj 131 722 lop~;
#X msg 200 675 5000;
#X obj 132 744 hip~ 50;
#X msg 227 246 0.7;
#X msg 492 303 80;
#X obj 751 1063 osc~;
#X obj 197 132 *~ 10;
#X obj 149 425 clip 0 5;
#X obj 694 423 env~ 1024;
#X obj 696 444 > 50;
#X obj 832 1069 hv.osc sine;
#X connect 0 0 2 0;
#X connect 0 0 5 0;
#X connect 1 0 17 0;
#X connect 2 0 33 0;
#X connect 3 0 4 0;
#X connect 4 0 0 1;
#X connect 5 0 41 0;
#X connect 6 0 0 0;
#X connect 7 0 36 0;
#X connect 8 0 24 0;
#X connect 8 0 27 1;
#X connect 8 0 30 0;
#X connect 9 0 7 0;
#X connect 10 0 9 0;
#X connect 11 0 12 0;
#X connect 12 0 9 1;
#X connect 13 0 5 1;
#X connect 13 0 18 1;
#X connect 14 0 15 0;
#X connect 15 0 42 0;
#X connect 16 0 14 0;
#X connect 17 0 2 1;
#X connect 17 0 8 0;
#X connect 18 0 43 0;
#X connect 18 0 84 0;
#X connect 18 0 86 0;
#X connect 19 0 18 0;
#X connect 20 0 19 0;
#X connect 21 0 22 0;
#X connect 22 0 25 0;
#X connect 23 0 35 0;
#X connect 24 0 21 0;
#X connect 25 0 23 0;
#X connect 26 0 24 1;
#X connect 26 0 21 1;
#X connect 27 0 28 0;
#X connect 28 0 31 0;
#X connect 29 0 34 0;
#X connect 30 0 27 0;
#X connect 31 0 29 0;
#X connect 32 0 30 1;
#X connect 33 0 13 0;
#X connect 34 0 11 0;
#X connect 35 0 3 0;
#X connect 35 0 7 1;
#X connect 36 0 13 1;
#X connect 37 0 40 0;
#X connect 38 0 41 1;
#X connect 39 0 20 0;
#X connect 40 0 38 0;
#X connect 41 0 68 0;
#X connect 41 0 68 1;
#X connect 42 0 43 1;
#X connect 43 0 135 0;
#X connect 44 0 46 0;
#X connect 46 0 47 0;
#X connect 47 0 48 0;
#X connect 48 0 49 0;
#X connect 49 0 61 0;
#X connect 49 0 64 0;
#X connect 49 0 96 0;
#X connect 49 0 93 0;
#X connect 50 0 51 0;
#X connect 51 0 52 0;
#X connect 52 0 53 0;
#X connect 53 0 1 0;
#X connect 54 0 56 0;
#X connect 55 0 57 1;
#X connect 56 0 55 0;
#X connect 57 0 59 0;
#X connect 58 0 54 0;
#X connect 59 0 50 0;
#X connect 60 0 54 1;
#X connect 61 0 62 0;
#X connect 62 0 63 0;
#X connect 63 0 58 0;
#X connect 63 0 59 1;
#X connect 64 0 65 0;
#X connect 65 0 66 0;
#X connect 66 0 57 0;
#X connect 66 0 67 0;
#X connect 67 0 60 0;
#X connect 69 0 16 0;
#X connect 84 0 85 0;
#X connect 85 0 88 0;
#X connect 86 0 87 0;
#X connect 87 0 130 0;
#X connect 90 0 89 0;
#X connect 91 0 89 0;
#X connect 93 0 133 0;
#X connect 94 0 95 0;
#X connect 95 0 98 0;
#X connect 96 0 97 0;
#X connect 97 0 94 0;
#X connect 98 0 99 0;
#X connect 98 0 132 0;
#X connect 101 0 125 0;
#X connect 102 0 101 1;
#X connect 102 0 41 1;
#X connect 103 0 104 0;
#X connect 104 0 115 0;
#X connect 104 0 118 0;
#X connect 105 0 106 0;
#X connect 105 0 119 0;
#X connect 106 0 102 0;
#X connect 107 1 105 0;
#X connect 108 0 109 0;
#X connect 109 0 107 1;
#X connect 110 0 111 0;
#X connect 111 0 103 1;
#X connect 113 0 122 0;
#X connect 113 0 128 0;
#X connect 113 0 129 0;
#X connect 113 0 121 0;
#X connect 113 0 126 0;
#X connect 114 0 116 0;
#X connect 115 0 102 0;
#X connect 116 0 115 1;
#X connect 118 0 117 0;
#X connect 119 0 117 0;
#X connect 121 0 120 0;
#X connect 122 0 108 0;
#X connect 123 0 124 0;
#X connect 124 0 125 1;
#X connect 125 0 127 0;
#X connect 126 0 123 0;
#X connect 128 0 110 0;
#X connect 129 0 114 0;
#X connect 130 0 41 0;
#X connect 132 0 103 0;
#X connect 132 0 107 0;
#X connect 132 0 112 0;
#X connect 133 0 134 0;
#X connect 134 0 37 0;
